<svg xmlns="http://www.w3.org/2000/svg" width="190" height="24" viewBox="500 0 500 300"><g id="Capa_2" data-name="Capa 2"><g id="Capa_1-2" data-name="Capa 1" fill="white"><path d="M1749.66,59.9A22.34,22.34,0,1,0,1772,82.24,22.31,22.31,0,0,0,1749.66,59.9Zm13.65,34.64v-6l-.94.24a17.78,17.78,0,0,1-2.21.16c-2.7,0-4.43-.87-5.68-2.92,4.72-.71,8.83-4,8.83-9.16,0-4.89-4-8.12-9.79-8.12h-16.1V95.48H1745v-9h3c.94,5.9,6.47,9.32,12.15,9.32a10.28,10.28,0,0,0,2.12-.25,18.1,18.1,0,0,1-12.62,5.06,18.43,18.43,0,1,1,13.65-6.09ZM1752,81.06h-7v-6.8h7a3.42,3.42,0,1,1,0,6.8Z"/><path d="M366.36,146.6H344.22c-28.6,0-32.88,14.11-32.88,22.51,0,13.92,10.64,22.54,27.71,22.54s27.49-7.89,31.12-11.28a5.57,5.57,0,0,0,1.77-4.05V152.17A5.58,5.58,0,0,0,366.36,146.6Z"/><path d="M134.09,63.25H111.93a5.57,5.57,0,0,0-5.57,5.57V118a5.58,5.58,0,0,0,5.57,5.58h22.16c14.89,0,25.55-3.88,31.66-11.55a0,0,0,0,0,0,0c3.86-4.86,5.8-11.06,5.8-18.44s-1.94-13.78-5.8-18.66C159.66,67.17,149,63.25,134.09,63.25Z"/><path d="M1437.83,146.6h-22.14c-28.6,0-32.88,14.11-32.88,22.51,0,13.92,10.61,22.54,27.71,22.54s27.47-7.89,31.1-11.28a5.51,5.51,0,0,0,1.78-4.05V152.17A5.58,5.58,0,0,0,1437.83,146.6Z"/><path d="M1672.55,140.67,1723.42,63a5.62,5.62,0,0,0,.25-5.71,5.56,5.56,0,0,0-4.91-2.92h-77.6a5.66,5.66,0,0,0-.82.06,5.19,5.19,0,0,0-.78.18h0a4.22,4.22,0,0,0-.7.27h0a6.56,6.56,0,0,0-.69.4.08.08,0,0,1,0,0,6.41,6.41,0,0,0-.58.45l-.26.25-.16.17-20.53,20.54-8.52-19a5.54,5.54,0,0,0-5.08-3.3h-77.6a5.56,5.56,0,0,0-2.19.44,4.54,4.54,0,0,0-.62.32,7.4,7.4,0,0,0-.65.44l-.49.43-.06.06-22.85,22.85c-14.74-15.76-37.1-26.15-64.68-29.27-.89-.11-1.8-.2-2.69-.29s-1.88-.18-2.81-.24l-3-.2c-1-.07-2.11-.14-3.18-.16-.78,0-1.59-.07-2.37-.09-1.36,0-2.72,0-4.1,0-42.56,0-76,9.58-77.44,10a6.23,6.23,0,0,0-.85.33,3.7,3.7,0,0,0-.76.45s0,0,0,0a3.87,3.87,0,0,0-.56.44c0,.05-.11.09-.18.16l-34.6,34.6v-89A5.57,5.57,0,0,0,1295.69,0H1175c-.24,0-.49,0-.73,0l-.36.07h0a3.69,3.69,0,0,0-.69.2,4.51,4.51,0,0,0-.72.29,5,5,0,0,0-.87.56,3.17,3.17,0,0,0-.55.49.23.23,0,0,0-.11.11l-28.65,28.63a5.88,5.88,0,0,0-1.45,2.51l-6.93,26L1119.13,4.12A5.56,5.56,0,0,0,1113.76,0H993a5.49,5.49,0,0,0-3.54,1.27l-.41.38a.59.59,0,0,0-.17.18L974.45,16.27V5.57a5.45,5.45,0,0,0-1.88-4.14A5.56,5.56,0,0,0,968.23,0L893.5,8.67a6.66,6.66,0,0,0-.91.18,5.89,5.89,0,0,0-.83.31,5.37,5.37,0,0,0-1.42,1l-.14.11-.22.25L847.4,53.06V51.27a5.56,5.56,0,0,0-6.2-5.52l-75,8.62a6.51,6.51,0,0,0-.92.18,5.77,5.77,0,0,0-.82.31,4.45,4.45,0,0,0-.87.52,4.18,4.18,0,0,0-.58.46l-.34.36-10.3,10.28V59.9a5.57,5.57,0,0,0-5.57-5.57H711V5.57A5.58,5.58,0,0,0,705.42,0h-21a5.6,5.6,0,0,0-1.63.25,6.18,6.18,0,0,0-1,.42c-.15.09-.31.18-.46.29a6,6,0,0,0-.85.69v0l-.42.4a1.21,1.21,0,0,1-.16.16l-.4.4a1.21,1.21,0,0,1-.16.16l-.4.42-.15.13-.41.43a1.14,1.14,0,0,0-.17.15l-.4.4a.81.81,0,0,1-.16.16l-.4.4a1.21,1.21,0,0,1-.16.16l-.4.42-.16.16-.55.56-.43.4a1.06,1.06,0,0,1-.15.15l-.4.43a.75.75,0,0,0-.16.13l-.4.42-.16.16-.42.4a1.21,1.21,0,0,1-.16.16l-.4.4a1.06,1.06,0,0,1-.15.15l-.43.43-.13.13-.43.42a.56.56,0,0,1-.15.16l-.4.4a1.21,1.21,0,0,1-.16.16l-.4.42a.61.61,0,0,0-.16.16l-.4.4a1.22,1.22,0,0,0-.18.16l-.4.42-.15.13-.4.43a.75.75,0,0,0-.16.13l-.4.42a.61.61,0,0,0-.16.16l-.42.4a1.21,1.21,0,0,1-.16.16l-.4.4a.71.71,0,0,1-.15.15l-.43.43-.13.13-.43.43a.71.71,0,0,1-.15.15l-.4.4-.16.16-.4.4c0,.07-.11.11-.16.18l-.4.4a.46.46,0,0,0-.15.16l-.43.4a1.06,1.06,0,0,1-.15.15l-.4.43a.75.75,0,0,0-.16.13l-.4.42a.61.61,0,0,0-.16.16l-.4.4c-.07.05-.11.11-.18.16l-.4.42a1.74,1.74,0,0,1-.15.13l-.41.43-.15.13-.43.43a1.08,1.08,0,0,0-.13.15l-.42.4-.16.16-.4.4a1.21,1.21,0,0,1-.16.16l-.42.42a.75.75,0,0,0-.13.16l-.43.4a1.06,1.06,0,0,1-.15.15l-.4.43-.16.13-.4.42a.61.61,0,0,0-.16.16l-.4.4a1.29,1.29,0,0,0-.18.16l-.4.42a1.74,1.74,0,0,1-.15.13l-.41.41a1.06,1.06,0,0,1-.15.15l-.43.43a1.08,1.08,0,0,0-.13.15l-.42.4a1.21,1.21,0,0,1-.16.16l-.4.4a.81.81,0,0,1-.16.16l-.4.42a.46.46,0,0,0-.15.16l-.4.4c-.07,0-.12.11-.18.15l-.4.4a1.2,1.2,0,0,1-.16.16l-.4.42a1.14,1.14,0,0,0-.16.14L620.88,61.57V54.15a5.57,5.57,0,0,0-5.57-5.57c-1.16,0-2.3,0-3.44,0s-2.2.07-3.27.11h-.16c-1.07.05-2.12.11-3.14.2s-2.21.16-3.28.27-2,.2-3,.33-2,.27-3,.41c-1.34.2-2.63.42-3.9.64-1,.18-1.92.38-2.86.58s-1.87.43-2.78.65l-2.1.53c-.8.2-1.6.43-2.36.65s-1.56.47-2.3.71c-.44.14-.87.27-1.29.43s-.87.29-1.29.47c-.81.29-1.61.58-2.39.89s-1.47.55-2.18.87l-.18.06c-.67.32-1.34.61-2,.9s-1.24.55-1.85.84c-.93.47-1.87.94-2.78,1.43,0,0-.05,0-.05,0-1,.56-2.09,1.14-3.1,1.74s-1.71,1-2.54,1.58-1.36.92-2,1.39c-1,.69-2,1.42-3,2.18-.42.33-.85.65-1.25,1s-.87.69-1.27,1c-.62.53-1.2,1-1.8,1.58a1.39,1.39,0,0,0-.34.31c-.47.4-.91.83-1.36,1.27s-1.18,1.12-1.76,1.72a2.46,2.46,0,0,0-.25.22l-3.74,3.73V51.27a5.49,5.49,0,0,0-1.87-4.14,5.55,5.55,0,0,0-4.35-1.38l-74.73,8.62a6.66,6.66,0,0,0-.91.18,5.89,5.89,0,0,0-.83.31,5.37,5.37,0,0,0-1.42,1A.75.75,0,0,0,459,56l-.22.24-27.6,27.58C417.86,66.72,396.39,55,369.3,50.56l-2.63-.4c-.91-.13-1.82-.27-2.76-.38s-1.92-.22-2.88-.33c-2-.23-4.08-.41-6.15-.54-1.2-.07-2.41-.13-3.61-.18s-2.32-.09-3.5-.11-2.36,0-3.55,0c-42.55,0-76,9.58-77.42,10a4.72,4.72,0,0,0-1.63.78,3.59,3.59,0,0,0-.57.46.9.9,0,0,0-.18.16L249,75.39a91.46,91.46,0,0,0-1.6-12.86c-.29-1.4-.6-2.76-.94-4.1-.2-.76-.38-1.49-.6-2.21-.13-.51-.29-1-.45-1.51s-.24-.81-.38-1.21c-.22-.69-.46-1.38-.71-2s-.51-1.42-.8-2.14-.63-1.58-1-2.34l-.8-1.76c-.29-.62-.58-1.25-.89-1.85-.61-1.18-1.23-2.34-1.88-3.48-.29-.49-.58-1-.89-1.47a68.73,68.73,0,0,0-7.31-9.87c-.42-.47-.85-.94-1.29-1.39s-.92-1-1.39-1.42c-1.31-1.34-2.67-2.59-4.08-3.79-.49-.43-1-.85-1.49-1.25-1.14-.94-2.27-1.83-3.46-2.68-.86-.64-1.76-1.25-2.67-1.83-.33-.24-.65-.44-1-.64-.89-.58-1.78-1.14-2.72-1.7l-.71-.4c-.69-.42-1.41-.8-2.14-1.18s-1.43-.78-2.14-1.11c-.41-.23-.81-.43-1.21-.61-.67-.33-1.36-.66-2.05-.95s-1.49-.7-2.25-1c-.47-.2-.94-.4-1.43-.58s-1.18-.49-1.78-.69-1.5-.58-2.23-.82-1.61-.58-2.41-.83a5.62,5.62,0,0,0-.82-.27c-1.16-.37-2.3-.73-3.48-1l-.45-.14c-1.13-.31-2.27-.6-3.41-.87l-.55-.13c-1.12-.27-2.21-.51-3.33-.74-.24-.06-.51-.11-.78-.15-1.07-.22-2.14-.42-3.23-.58a4.69,4.69,0,0,0-.69-.13c-.87-.16-1.76-.29-2.65-.38-2.34-.36-4.68-.61-7-.78-2.11-.2-4.23-.32-6.33-.38-1.31,0-2.65-.07-4-.07H34.33a5.48,5.48,0,0,0-3.92,1.63l-.2.2A1.08,1.08,0,0,0,30,2L1.65,30.39A5.54,5.54,0,0,0,0,34.33V210.25A207.71,207.71,0,0,0,3.7,251c12.13,60.25,53,89.55,124.93,89.55a210.44,210.44,0,0,0,64.54-10.68,5.53,5.53,0,0,0,2.05-1.29l28.89-28.9c.13-.15.29-.33.42-.51a5.16,5.16,0,0,0,1-2.52,4.84,4.84,0,0,0,.06-.78V245.62c12.33,10.1,30.5,15.61,53.37,15.61,24.93,0,42.65-8.72,53.06-15.94v4.61a5.58,5.58,0,0,0,5.57,5.58h74.73a5.59,5.59,0,0,0,3.95-1.63l12.37-12.37v8.42a5.58,5.58,0,0,0,5.57,5.58H509a5.55,5.55,0,0,0,3.94-1.63l28.76-28.76a5.33,5.33,0,0,0,.67-.82,5.56,5.56,0,0,0,1-3.12V156.21c1.65-.11,3.34-.18,5.06-.18a88.9,88.9,0,0,1,35.71,7.76,5.61,5.61,0,0,0,6.45-1l5.86-5.86v28.64c0,47.64,26.46,72.83,76.55,72.83,29.92,0,45.77-3.72,46.44-3.9A5.32,5.32,0,0,0,722,253l22.25-22.23a56.46,56.46,0,0,0,14.85,18.13l-8.59,8.58a5.66,5.66,0,0,0-1.62,4v63.22a5.54,5.54,0,0,0,3.69,5.24,210.36,210.36,0,0,0,64.54,10.68c42.27,0,73.28-10.06,94.75-30.68.15-.15.31-.31.56-.58a4.7,4.7,0,0,0,.55-.55c.18-.16.34-.32.58-.56s.31-.31.56-.58a6.85,6.85,0,0,0,.58-.56c.16-.15.31-.31.56-.56l.58-.58.55-.55a5.8,5.8,0,0,0,.56-.56l.58-.58c.16-.13.29-.29.54-.54l.58-.57.55-.56.56-.56.58-.58,1.14-1.14c.15-.13.29-.29.55-.55s.32-.29.56-.56l.58-.58a6.08,6.08,0,0,0,.54-.56c.17-.13.31-.29.58-.55l1.69-1.7.58-.58.56-.56c.15-.13.29-.29.55-.55l.56-.56c.16-.16.31-.29.58-.58l.56-.56a6.26,6.26,0,0,0,.53-.56,5.47,5.47,0,0,0,.58-.55l.56-.56.58-.58c.16-.16.31-.29.58-.58l1.11-1.11c.16-.16.32-.32.54-.56a5.66,5.66,0,0,0,.58-.56l1.14-1.13c.15-.14.31-.3.55-.56l.56-.56c.16-.16.31-.31.56-.58s.31-.29.58-.56.31-.31.56-.58.31-.29.55-.53l.58-.58.56-.56,0,0c.8-.76,1.61-1.54,2.37-2.34.42-.4.8-.8,1.18-1.21s1-1,1.4-1.53.78-.85,1.16-1.3c.65-.73,1.29-1.49,1.92-2.27s1.22-1.54,1.83-2.34,1.2-1.58,1.78-2.41,1.16-1.63,1.71-2.47,1-1.56,1.52-2.37a2.48,2.48,0,0,0,.18-.31c.51-.8,1-1.6,1.47-2.41a2.14,2.14,0,0,1,.13-.22c1-1.72,2-3.5,2.88-5.3.27-.45.49-.92.71-1.36a5.58,5.58,0,0,0,4,1.67h77.6a5.51,5.51,0,0,0,3.93-1.63l20.82-20.8,4.93,18.3a5.6,5.6,0,0,0,5.39,4.13h77.6a5.51,5.51,0,0,0,3.93-1.63l25.28-25.26V249.9a5.57,5.57,0,0,0,5.57,5.58h77.6a5.59,5.59,0,0,0,4-1.63l17.63-17.63c11.7,16.18,33.37,25,61.93,25,24.92,0,42.65-8.72,53.06-15.94v4.61a5.57,5.57,0,0,0,5.57,5.58h165.1a5.54,5.54,0,0,0,3.95-1.63l20.78-20.8,8.4,19.11a5.61,5.61,0,0,0,5.11,3.32H1690a5.57,5.57,0,0,0,3.94-1.63l28.76-28.76a6.1,6.1,0,0,0,1-1.29,4.49,4.49,0,0,0,.24-.56,1.45,1.45,0,0,0,.16-.38c0-.06,0-.13.07-.2s.06-.29.09-.44,0-.29.06-.43a4.6,4.6,0,0,0,0-.64,5.54,5.54,0,0,0-.92-3.06ZM220.39,172c-8.7,8.69-13.09,19.62-13.09,32.5a55.76,55.76,0,0,0,5.57,25.28l-2.07.87c-.65.27-1.29.54-1.94.78-2.47,1-5,1.88-7.47,2.68-1.67.56-3.34,1.05-5,1.49-1.36.4-2.72.76-4.1,1.07-1.07.27-2.14.52-3.19.72s-1.87.4-2.81.55c-.27,0-.56.11-.82.14-.92.18-1.81.31-2.73.44-.73.14-1.49.23-2.25.31-.58.09-1.16.16-1.71.23-.36,0-.69.06-1,.11l-2.07.18c-.83.09-1.65.13-2.45.18l-2.1.11c-1.43.06-2.83.09-4.26.09-31.83,0-49.35-15.88-49.35-44.72v-4.19H128.9c28.47,0,53.19-8.9,69.6-25l28.2-28.21c.33-.31.64-.64.93-1l.94-1c1.4-1.43,2.7-2.9,4-4.44.17-.22.35-.44.55-.67a1,1,0,0,0,.14-.15c.26-.34.55-.65.82-1V153a5.59,5.59,0,0,0,1.49,3.81ZM238,83c0,.6,0,1.21-.07,1.81s0,1.09-.09,1.65a1.17,1.17,0,0,1,0,.42c0,.58-.07,1.16-.13,1.74a1.49,1.49,0,0,1,0,.47,71.42,71.42,0,0,1-3.34,16.29c-.42,1.25-.87,2.5-1.38,3.73s-1,2.34-1.54,3.47a55.43,55.43,0,0,1-5.08,8.54c-.47.69-1,1.34-1.5,2-1,1.29-2.09,2.56-3.23,3.79-14.2,15.29-36.92,24-63.93,24H111.93a5.58,5.58,0,0,0-5.57,5.57V195c0,35,22.63,55.86,60.5,55.86a126,126,0,0,0,47.6-9.65v50.63c-8.65,2.65-31.41,8.8-57.07,8.8-65.79,0-103.08-26.35-114-80.59a196.55,196.55,0,0,1-3.5-38.56V11.15H157.66c37.07,0,80.36,18.34,80.36,70C238,81.77,238,82.37,238,83ZM435.52,215.57H371.94V204.76a5.58,5.58,0,0,0-9.52-3.94c-4.8,4.81-23,20.5-54.69,20.5-38.48,0-60.52-16.63-60.52-45.58,0-36.68,44.76-42.14,71.45-42.14h45.41a5.57,5.57,0,0,0,5.12-7.73c-5.37-12.78-18.72-19.8-37.61-19.8-23.22,0-46.12,6.46-57.64,10.3V68.24c.62-.16,1.31-.34,2.07-.51l2.47-.58c.61-.14,1.23-.27,1.88-.4,1.07-.25,2.23-.5,3.45-.74q3.68-.77,8.16-1.56c1.49-.27,3-.54,4.66-.78,2.41-.4,5-.78,7.62-1.14.9-.13,1.79-.24,2.7-.35q2.74-.37,5.62-.67c1-.12,1.94-.23,2.92-.32,4.41-.44,9.05-.8,13.87-1.07l2.89-.13c1,0,2-.09,2.95-.11q4.44-.16,9-.16,2.52,0,4.95.09h.27c1.63,0,3.21.14,4.79.25h0c1.58.09,3.14.22,4.68.38l.13,0c1.5.15,3,.33,4.42.51.29.05.56.07.85.14,1,.13,2.05.28,3.07.46.56.09,1.12.18,1.67.29,1.23.2,2.46.45,3.66.72.94.2,1.87.4,2.81.62l.6.13c1,.23,1.9.47,2.83.74.2,0,.43.11.63.16.91.24,1.82.51,2.74.8,2.72.82,5.33,1.74,7.87,2.76,1,.36,1.94.76,2.87,1.18l.47.21c1.21.53,2.37,1.07,3.5,1.62l0,0c1.21.61,2.39,1.23,3.55,1.86,1.4.78,2.76,1.58,4.1,2.43a17.69,17.69,0,0,1,1.67,1.09c.87.58,1.72,1.16,2.54,1.78.54.38,1.05.78,1.56,1.16s1,.8,1.52,1.2c14.94,12.22,23.48,29.19,23.48,49.41ZM609.73,75.13v46.63a101.35,101.35,0,0,0-32.65-5.64c-31,0-45,14.94-45,29.72v69.73H468.55V64.87l63.58-7.33V97a5.57,5.57,0,0,0,10.61,2.39A67.42,67.42,0,0,1,554.4,82c.16-.17.31-.33.49-.49a5.8,5.8,0,0,1,.56-.55c.2-.18.4-.36.58-.54,9.63-9.54,22.2-15.81,37.59-18.77,1.07-.2,2.16-.38,3.25-.56a1.47,1.47,0,0,1,.42-.06c1.25-.2,2.55-.38,3.86-.52s2.81-.31,4.24-.4,2.87-.2,4.34-.27Zm131.49,4.79v26.15h-35.8a5.58,5.58,0,0,0-5.58,5.57v36.5c0,16.32,9.52,26.84,24.26,26.84A77.77,77.77,0,0,0,741.22,173v42.64c-6.38,1-19.78,2.77-39.55,2.77-44,0-65.41-20.18-65.41-61.69V62.2l39.17-39.73.56-.56h0l1-1h0l.71-.71,1.14-1.14.56-.55,7.33-7.34,13.13,0V59.9a5.57,5.57,0,0,0,5.58,5.57h35.8ZM963.3,29.74V181.49a192.72,192.72,0,0,1-4.17,42,6.58,6.58,0,0,0-.29.92C954,245,945.13,261.54,932.36,273.6l-1.81,1.81c-19.3,17-47.35,25.23-84.69,25.23-25.59,0-48.42-6.15-57.09-8.8V241.21a125.94,125.94,0,0,0,47.59,9.65c39.08,0,63.36-21.4,63.36-55.86v-7.76a5.58,5.58,0,0,0-10.34-2.9c-10.21,16.88-29.12,37-61.06,37-38.68,0-55.94-24.87-55.94-80.65V64.87l63.87-7.33v70.2c0,39.06,16.32,47.24,30,47.24,12,0,23.14-6.09,32.26-17.64a5.54,5.54,0,0,0,1.2-3.45V19.17l63.58-7.33Zm326.82,78.31V215.57h-66.46V91.22a5.58,5.58,0,0,0-11-1.42L1184,197.16,1179,215.57H1110l-34-125.8a5.57,5.57,0,0,0-10.94,1.45V215.57H998.61V11.15h110.87l19.06,70.69,10.59,39.3a5.57,5.57,0,0,0,10.76,0l29.36-110h110.87ZM1507,215.57H1443.4V204.76a5.58,5.58,0,0,0-9.52-3.94c-4.81,4.81-23,20.5-54.68,20.5-38.48,0-60.55-16.63-60.55-45.58,0-36.68,44.77-42.14,71.45-42.14h45.43a5.57,5.57,0,0,0,5.13-7.73c-5.37-12.78-18.73-19.8-37.61-19.8-23.25,0-46.14,6.46-57.67,10.3V68.24c2.83-.69,7-1.67,12.37-2.72l1.81-.36c1.38-.26,2.81-.53,4.3-.78,1.2-.22,2.45-.42,3.75-.64a309.78,309.78,0,0,1,33.32-3.62l2.79-.13c1,0,1.94-.09,2.94-.11q4.46-.16,9-.16c1.7,0,3.39,0,5.06.09s3.32.14,5,.25,3.1.22,4.64.38,2.81.29,4.17.49c.89.11,1.78.24,2.65.38a115.88,115.88,0,0,1,22,5.52c1.7.63,3.37,1.3,5,2,.81.33,1.61.69,2.41,1.07,1.61.71,3.15,1.49,4.66,2.32.76.4,1.5.82,2.23,1.25s1.47.84,2.19,1.29c1,.58,1.89,1.2,2.8,1.83.18.13.38.24.56.38.6.4,1.16.82,1.74,1.24.38.27.78.58,1.14.87.53.38,1,.81,1.54,1.21s1,.84,1.49,1.27c0,0,0,0,0,0a5.58,5.58,0,0,1,.47.38,1.29,1.29,0,0,0,.18.16c.56.46,1.07,1,1.58,1.44s1,1,1.54,1.52C1500.41,96.77,1507,112,1507,129.75Zm137.82,0-17.5-39.79a5.58,5.58,0,0,0-10.19,0l-17.79,39.81h-63.67l47.22-71.85a5.56,5.56,0,0,0,0-6.11l-47.2-72.07,63.65-.07,10.36,23.23,7.43,16.59a5.54,5.54,0,0,0,5.08,3.3h0a5.62,5.62,0,0,0,5.09-3.32l17.5-39.8h63.64l-47.24,72.14a5.58,5.58,0,0,0,0,6.11l47.19,71.85Z"/></g></g></svg>