<svg xmlns="http://www.w3.org/2000/svg" height="28" viewBox="0 0 121.52 24"><defs><style>.cls-1{fill:#F3FCFE;}</style></defs><g id="Capa_2" data-name="Capa 2"><g id="Capa_1-2" data-name="Capa 1"><path class="cls-1" d="M25.82,10.33H24.26c-2,0-2.32,1-2.32,1.59,0,1,.75,1.59,1.95,1.59a3.19,3.19,0,0,0,2.2-.8.38.38,0,0,0,.12-.28V10.72A.39.39,0,0,0,25.82,10.33Z"/><path class="cls-1" d="M9.45,4.46H7.89a.38.38,0,0,0-.39.39V8.31a.39.39,0,0,0,.39.4H9.45a2.71,2.71,0,0,0,2.23-.82h0a2,2,0,0,0,.41-1.3,2.05,2.05,0,0,0-.41-1.31A2.68,2.68,0,0,0,9.45,4.46Z"/><path class="cls-1" d="M101.33,10.33H99.77c-2,0-2.32,1-2.32,1.59,0,1,.75,1.59,2,1.59a3.18,3.18,0,0,0,2.19-.8.38.38,0,0,0,.12-.28V10.72A.39.39,0,0,0,101.33,10.33Z"/><path class="cls-1" d="M117.87,9.91l3.59-5.47a.43.43,0,0,0,0-.41.42.42,0,0,0-.35-.2H115.6l0,0h-.06l0,0h0l0,0h0V4L113.92,5.4l-.6-1.34a.38.38,0,0,0-.35-.23H107.5a.41.41,0,0,0-.16,0l0,0,0,0,0,0h0L105.6,5.56a7.2,7.2,0,0,0-4.55-2.06l-.19,0-.2,0-.21,0h-.68a21.3,21.3,0,0,0-5.46.71l-.06,0,0,0h0s0,0,0,0h0L91.71,6.67V.39a.4.4,0,0,0-.4-.39H82.68l-.05,0-.06,0a.08.08,0,0,0,0,0h0l-2,2a.4.4,0,0,0-.1.18l-.49,1.83-1-3.86A.4.4,0,0,0,78.49,0H70a.38.38,0,0,0-.25.09l0,0h0l-1,1V.39A.36.36,0,0,0,68.54.1a.41.41,0,0,0-.3-.1L63,.61H62.9l0,0a.33.33,0,0,0-.1.06h0l0,0-3,3V3.61a.41.41,0,0,0-.13-.29.42.42,0,0,0-.31-.1L54,3.83h-.07l-.06,0-.06,0s0,0,0,0,0,0,0,0L53,4.69V4.22a.38.38,0,0,0-.39-.39H50.11V.39a.4.4,0,0,0-.4-.39H48.23l-.11,0s0,0-.07,0l0,0a.15.15,0,0,0-.06,0h0l0,0h0l0,0h0l0,0h0l0,0h0l0,0v0l0,0v0l0,0v0l0,0,0,0h0l0,0h0l0,0h0l0,0h0l0,0h0l0,0h0l0,0h0l0,0h0l0,0h0l0,0h0l0,0h0l0,0h0l0,0h0l0,0h0l0,0h0l0,0h0l0,0h0l0,0h0l0,0h0l0,0h0l0,0h0l0,0h0l0,0h0l0,0h0l0,0h0l0,0h0l0,0h0l0,0h0l0,0h0l0,0h0l0,0h0l0,0h0l0,0h0l0,0h0l0,0h0l0,0h0l0,0v0l0,0V2l0,0h0l0,0V2l0,0h0l0,0h0l0,0h0l-2.17,2.2V3.82a.4.4,0,0,0-.4-.4h-.48l-.22,0-.23,0-.22,0-.21,0-.27,0-.2,0-.2,0-.15,0-.17,0-.16,0-.09,0-.09,0-.17.06L40.35,4h0L40.2,4l-.13.06-.2.1h0l-.22.12-.18.12-.14.09a1.16,1.16,0,0,0-.21.16L39,4.76l-.09.07-.13.11,0,0-.1.09-.12.12,0,0-.26.26V3.61a.41.41,0,0,0-.13-.29.45.45,0,0,0-.31-.1l-5.27.61h-.06l-.06,0a.23.23,0,0,0-.1.07h0l0,0L30.39,5.9A6.77,6.77,0,0,0,26,3.56l-.19,0-.19,0-.21,0-.43,0-.25,0h-.5a21.3,21.3,0,0,0-5.46.71l-.11,0,0,0h0L17.55,5.31a7.91,7.91,0,0,0-.11-.9c0-.1-.05-.2-.07-.29s0-.11,0-.16l0-.1,0-.09s0-.1-.05-.14l-.06-.15a.87.87,0,0,0-.07-.17A.61.61,0,0,0,17,3.19L17,3.06l-.14-.25-.06-.1a5.24,5.24,0,0,0-.51-.7l-.1-.1-.09-.1-.29-.26-.11-.09-.24-.19-.19-.13-.07,0A.76.76,0,0,0,15,1l-.05,0L14.79.86,14.64.79,14.55.74,14.41.68,14.25.6l-.1,0L14,.52,13.87.46,13.7.4l-.06,0L13.4.31h0a1.05,1.05,0,0,0-.24-.06h0L12.85.17h-.06l-.22,0h-.05l-.19,0A4.1,4.1,0,0,0,11.84,0l-.45,0h-9a.39.39,0,0,0-.28.11v0h0l-2,2A.38.38,0,0,0,0,2.42v12.4a14.85,14.85,0,0,0,.26,2.87C1.12,21.94,4,24,9.07,24a14.78,14.78,0,0,0,4.54-.75.38.38,0,0,0,.15-.09l2-2,0,0a.28.28,0,0,0,.07-.17.13.13,0,0,0,0-.06V17.31a5.87,5.87,0,0,0,3.76,1.1,6.47,6.47,0,0,0,3.74-1.12v.32a.39.39,0,0,0,.39.39h5.27a.43.43,0,0,0,.28-.11l.87-.87v.59a.38.38,0,0,0,.39.39h5.27a.43.43,0,0,0,.28-.11l2-2a.12.12,0,0,0,0,0,.44.44,0,0,0,.07-.22V11h.35a6.49,6.49,0,0,1,2.52.54.39.39,0,0,0,.46-.07l.41-.41v2c0,3.36,1.86,5.14,5.39,5.14a14.53,14.53,0,0,0,3.28-.28.32.32,0,0,0,.18-.1l1.57-1.57a4,4,0,0,0,1,1.28l-.61.6a.43.43,0,0,0-.11.28v4.46a.4.4,0,0,0,.26.37,14.8,14.8,0,0,0,4.55.75c3,0,5.16-.71,6.67-2.16l0,0,0,0,0,0,0,0,0,0,0,0,0,0,0,0,0,0,0,0,0,0,0,0,0,0,0,0,0,0,.08-.08,0,0,0,0,0,0,0,0,0,0,.12-.12,0,0,0,0,0,0,0,0,0-.05,0,0s0,0,0,0l0,0,0,0,0,0,0,0,.07-.08,0,0s0,0,0,0l.08-.08,0,0,0,0,0,0,0,0,0,0,0,0,0,0,0,0h0c.06-.05.11-.11.17-.17a.6.6,0,0,0,.08-.08l.1-.11.08-.09.14-.16.13-.17.12-.17.12-.17c0-.05.07-.11.11-.17a0,0,0,0,0,0,0c0-.05.07-.11.11-.17h0c.08-.12.14-.25.21-.38l.05-.09A.39.39,0,0,0,68,18h5.47a.39.39,0,0,0,.27-.11l1.47-1.47.35,1.29a.38.38,0,0,0,.38.29h5.47a.39.39,0,0,0,.27-.11l1.78-1.78v1.5a.39.39,0,0,0,.4.39h5.47a.39.39,0,0,0,.27-.11l1.25-1.24c.82,1.14,2.35,1.76,4.36,1.76a6.47,6.47,0,0,0,3.74-1.12v.32a.39.39,0,0,0,.39.39h11.64a.43.43,0,0,0,.28-.11l1.46-1.47.59,1.35a.41.41,0,0,0,.36.23h5.47a.39.39,0,0,0,.28-.11l2-2a.35.35,0,0,0,.07-.09s0,0,0,0,0,0,0,0v-.12a.4.4,0,0,0-.06-.22ZM15.53,12.12a3.12,3.12,0,0,0-.92,2.29A3.89,3.89,0,0,0,15,16.19l-.14.06-.14.06-.53.19-.35.1-.29.08-.22.05-.2,0h-.06l-.19,0-.16,0-.12,0h-.07l-.15,0h-.62c-2.24,0-3.48-1.11-3.48-3.15v-.29h.8A7,7,0,0,0,14,11.69l2-2L16,9.63l.07-.07a4.12,4.12,0,0,0,.28-.31l0-.05h0l0-.07v1.67a.36.36,0,0,0,.11.26Zm1.24-6.27V6a.49.49,0,0,1,0,.12v0a.49.49,0,0,1,0,.12v0a5.09,5.09,0,0,1-.24,1.15l-.09.27-.11.24a3.67,3.67,0,0,1-.36.6.76.76,0,0,1-.11.14,2.88,2.88,0,0,1-.22.27,6,6,0,0,1-4.51,1.69H7.89a.39.39,0,0,0-.39.4v2.71c0,2.47,1.59,3.94,4.26,3.94A8.87,8.87,0,0,0,15.11,17v3.57a14.66,14.66,0,0,1-4,.62c-4.63,0-7.26-1.86-8-5.68a14.07,14.07,0,0,1-.25-2.72V.79h8.3c2.61,0,5.66,1.29,5.66,4.93Zm13.92,9.34H26.21v-.76a.38.38,0,0,0-.24-.36.4.4,0,0,0-.43.08,5.43,5.43,0,0,1-3.85,1.45c-2.71,0-4.27-1.17-4.27-3.22,0-2.58,3.16-3,5-3h3.2A.4.4,0,0,0,26,8.87a2.62,2.62,0,0,0-2.65-1.39,13.61,13.61,0,0,0-4.06.72V4.81l.14,0,.18,0,.13,0,.24,0,.58-.11.32,0,.54-.08.19,0,.4,0,.2,0,1-.07H25l.33,0h0l.31,0h.06l.21,0,.12,0,.26,0,.2,0h0l.2.06h0l.2,0,.55.2.2.08,0,0L28,5h0l.25.13.28.17.12.08.18.13.11.08.11.08a4.38,4.38,0,0,1,1.65,3.48ZM43,5.29V8.58a7.12,7.12,0,0,0-2.3-.4c-2.19,0-3.17,1.06-3.17,2.1v4.91H33V4.57l4.48-.52V6.83a.4.4,0,0,0,.31.39A.39.39,0,0,0,38.25,7a4.75,4.75,0,0,1,.82-1.22l0,0,0,0,0,0a4.93,4.93,0,0,1,2.64-1.33l.23,0h0l.28,0,.29,0,.31,0Zm9.27.34V7.48H49.71a.39.39,0,0,0-.39.39v2.57A1.69,1.69,0,0,0,51,12.33a5,5,0,0,0,1.21-.14v3a17.87,17.87,0,0,1-2.79.2c-3.1,0-4.61-1.43-4.61-4.35V4.38l2.76-2.8,0,0h0l.07-.06h0l0-.06.08-.08,0,0L48.4.79h.92V4.22a.39.39,0,0,0,.39.39h2.53ZM67.89,2.1V12.79a13.29,13.29,0,0,1-.3,3,.19.19,0,0,1,0,.07,6.75,6.75,0,0,1-1.86,3.46l-.13.13c-1.36,1.2-3.34,1.78-6,1.78a14.73,14.73,0,0,1-4-.62V17a8.87,8.87,0,0,0,3.35.68c2.76,0,4.47-1.51,4.47-3.94V13.2a.4.4,0,0,0-.73-.21,5,5,0,0,1-4.3,2.61c-2.73,0-4-1.76-4-5.69V4.57l4.5-.52V9c0,2.75,1.15,3.33,2.12,3.33a2.91,2.91,0,0,0,2.27-1.24.38.38,0,0,0,.09-.24V1.35L67.89.83Zm23,5.52v7.57H86.24V6.43a.4.4,0,0,0-.78-.1l-2,7.56-.35,1.3H78.22L75.83,6.33A.39.39,0,0,0,75.4,6a.4.4,0,0,0-.34.39v8.76H70.38V.79h7.81l1.34,5,.75,2.77a.39.39,0,0,0,.76,0L83.11.79h7.81Zm15.28,7.57h-4.48v-.76a.38.38,0,0,0-.24-.36.4.4,0,0,0-.43.08A5.43,5.43,0,0,1,97.2,15.6c-2.71,0-4.27-1.17-4.27-3.22,0-2.58,3.16-3,5-3h3.2a.41.41,0,0,0,.33-.18.4.4,0,0,0,0-.37,2.62,2.62,0,0,0-2.65-1.39,13.61,13.61,0,0,0-4.06.72V4.81c.19,0,.49-.12.87-.19l.12,0,.31,0,.26,0a20,20,0,0,1,2.35-.25h1.75l.32,0,.3,0,.18,0a9,9,0,0,1,1.55.39l.35.14.17.08a2.53,2.53,0,0,1,.33.16l.16.09.15.09a1.37,1.37,0,0,1,.2.13l0,0,.12.09.08.06.11.09.11.09h0l0,0h0l.11.1.11.11a4.33,4.33,0,0,1,1.28,3.14Zm9.72,0-1.24-2.8a.38.38,0,0,0-.71,0l-1.26,2.8h-4.49l3.33-5.06a.38.38,0,0,0,0-.43l-3.32-5.08h4.48l.73,1.64L114,7.42a.38.38,0,0,0,.35.23h0a.38.38,0,0,0,.35-.23l1.24-2.81h4.48L117.07,9.7a.42.42,0,0,0,0,.43l3.33,5.06Z"/></g></g></svg>