<svg xmlns="http://www.w3.org/2000/svg" width="300" viewBox="0 0 1912.7 540.17"><defs><style>.cls-1{fill:#0a1b33;}.cls-2{fill:#6fddef;}.cls-2,.cls-3,.cls-4{stroke:#0a1b33;stroke-width:6.7px;}.cls-2,.cls-3{stroke-linecap:round;stroke-linejoin:round;}.cls-3,.cls-4{fill:#ff0090;}.cls-4{stroke-miterlimit:10;}.cls-5{fill:#e2f8fc;}</style></defs><g id="Capa_2" data-name="Capa 2"><g id="Capa_1-2" data-name="Capa 1"><path class="cls-1" d="M1727.46,283.74a22.33,22.33,0,1,1,22.28,22.36A22.32,22.32,0,0,1,1727.46,283.74Zm4,0a18.33,18.33,0,0,0,31,13.35,11.45,11.45,0,0,1-2.14.24c-5.69,0-11.22-3.4-12.17-9.32h-3v9h-7.58V270.23h16.12c5.84,0,9.79,3.24,9.79,8.14,0,5.13-4.1,8.45-8.85,9.16,1.27,2.06,3,2.93,5.69,2.93a17.83,17.83,0,0,0,2.22-.16l.94-.24v6a18.39,18.39,0,1,0-32-12.33Zm20.63-1.19c2.6,0,3.79-1.73,3.79-3.39a3.44,3.44,0,0,0-3.79-3.4h-7v6.79Z"/><path class="cls-2" d="M1718.8,261.38h-77.7l-3.39,3.39h0l-2.82,2.82h0l-9,9h0l-2.82,2.83h0l-8.39,8.39-11.82-26.46h-77.71l-1.69,1.69h0l-6.21,6.21h0l-2.83,2.83h0l-2.82,2.82h0l-6.21,6.21h0l-2.82,2.82h0l-2.83,2.83h0l-1.84,1.84c-16.56-20.9-46.15-33-82.53-33a302.17,302.17,0,0,0-76,9.79L1336,268.8h0l-2.82,2.82h0l-9,9h0l-2.82,2.83h0l-9,9h0l-17.08,17.08V207H1174.29l-3.39,3.39h0l-2.82,2.82h0l-9,9h0l-2.82,2.82h0l-9,9h0l-1.7,1.69-12.31,46.12L1113,207H992.11l-24.19,24.19V207l-74.83,8.64-1.69,1.69h0l-6.21,6.21h0l-2.82,2.83h0l-2.83,2.82h0l-6.21,6.21h0l-2.82,2.82h0L867.68,241h0l-27,27V252.74l-75.11,8.64-1.7,1.69h0l-6.21,6.21h0l-2.82,2.83h0l-2.82,2.82h0l-6.22,6.21h0l-.28.29V261.38H704.1V207h-21l-.55.57h0l-.56.56h0l-.56.57h0l-.56.56h0l-.56.57h0l-.56.56h0l-.56.57h0l-.56.56h0l-.56.57h0l-.56.56h0l-.56.56h0l-.55.57h0l-.56.56h0l-.55.57h0l-.56.56h0l-.56.57h0l-.56.56h0l-.56.57h0l-.56.56h0l-.56.57h0l-.56.56h0l-.56.57h0l-.56.56h0l-.56.56h0l-.55.57h0l-.56.56h0l-.55.57h0l-.56.56h0l-.56.57h0l-.56.56h0l-.56.57h0l-.56.56h0l-.56.57h0l-.56.56h0l-.56.57h0l-.56.56h0l-.56.57h0l-.55.56h0l-.56.56h0l-.55.57h0l-.56.56h0l-.56.57h0l-.56.56h0l-.56.57h0l-.56.56h0l-.56.57h0l-.56.56h0l-.56.57h0l-.56.56h0l-.56.57h0l-.56.56h0l-40.41,40.84v-21c-31.39,0-51.53,10-64.4,23.42-.19.19-.39.37-.57.56s-.38.37-.56.57-.39.37-.57.56-.38.37-.56.56l-.57.57c-.18.19-.38.37-.56.56l-.57.57c-.18.19-.38.37-.56.56l-.57.57c-.18.19-.38.37-.56.56l-.57.57c-.18.19-.38.37-.56.56l-.57.57c-.18.19-.38.37-.56.56l-.57.57c-.18.19-.38.37-.56.56l-.57.57-.56.56-.56.56-.57.57c-.18.19-.38.37-.56.56l-.57.57c-.18.19-.38.37-.56.56s-.22.2-.32.31V252.74l-74.83,8.64L458,264.77h0l-2.83,2.82h0l-9,9h0l-2.82,2.83h0l-9,9h0l-1.69,1.69v10.42c-13.8-28.19-47.26-45-90.11-45a302.17,302.17,0,0,0-76,9.79l-3.39,3.39h0l-2.82,2.82h0l-9,9h0l-2.82,2.83h0l-7.08,7.07c.22-2.55.36-5.16.36-7.86,0-52.41-41.44-75.72-86.05-75.72H32.14l-1.69,1.69h0l-2.82,2.83h0l-3.39,3.39h0l-2.82,2.82h0l-1.13,1.13h0l-1.7,1.69h0l-2.82,2.82h0l-3.39,3.39h0l-1.13,1.13h0l-1.69,1.7h0l-1.13,1.12h0l-1.69,1.69h0L3.91,235.2h0l-.56.57V411.92A200.86,200.86,0,0,0,7,451.63c12.23,60.78,55,85.19,119.6,85.19a207,207,0,0,0,62.74-10.36l3.38-3.39h0l11.86-11.86h0l11.86-11.85h0l1.69-1.7h0V434.35c-19.85,9.5-38,12.66-53.24,12.66-36.83,0-55-19.85-55-50.36v-9.77h17c25.29,0,49.54-7.5,65.82-23.48.19-.18.37-.37.56-.56l.57-.56.56-.57.57-.56.56-.57.57-.56.56-.57.57-.56.56-.56.57-.57.56-.56.56-.57c.2-.18.38-.38.57-.56l.56-.57.57-.56.56-.57.57-.56.56-.57.57-.56.56-.57.57-.56c.19-.19.37-.38.56-.56l.56-.57c.2-.18.38-.38.57-.56l.56-.57c.2-.18.38-.38.57-.56l.56-.57c.2-.18.38-.38.57-.56L209,347l.57-.56.56-.57c.19-.18.37-.38.56-.56l.57-.57.56-.56c.2-.18.38-.38.57-.57s.37-.37.56-.56.38-.38.57-.56l.56-.57c.2-.18.38-.38.57-.56l.56-.57.57-.56.56-.57.57-.56.56-.57.56-.56.57-.57.56-.56c.2-.18.38-.38.57-.57l.56-.56c.2-.18.38-.38.57-.57a64.73,64.73,0,0,0,13.6-18.67,68.45,68.45,0,0,0,3.18-7.85v46s4.42-1.76,11.6-4l-.35.37-.56.57-.57.56-.56.57-.57.56-.56.57-.57.56L245,355l-.57.56c-.18.19-.38.37-.56.57l-.57.56c-.18.19-.38.37-.56.56l-.57.57-.56.56-.56.57-.57.56-.56.57-.57.56-.56.57-.57.56-.56.57-.57.56c-.18.19-.38.37-.56.57l-.57.56-.56.56-.56.57c-.19.19-.39.37-.57.56l-.56.57-.57.56-.56.57L232,368l-.56.57-.57.56-.56.57-.57.56-.56.57-.56.56c-.19.19-.39.37-.57.56l-.56.57c-.19.19-.39.37-.57.56l-.56.57c-.19.19-.39.37-.57.56l-.56.57-.57.56-.56.57-.57.56L223,377l-.57.56c-7.57,7.57-11.47,17.2-11.47,28.59,0,29.93,21.87,51.23,66.19,51.23,32.52,0,52.09-15.54,58.71-22.16v16.4h74.83l3.39-3.39h0l2.82-2.82h0l2.83-2.82h0l6.21-6.21h0l2.82-2.83h0l2.82-2.82h0l1-1v21.92h74.83l3.38-3.39h0l2.83-2.82h0l2.82-2.82h0l6.21-6.21h0l2.82-2.83h0l2.83-2.82h0l6.21-6.21h0l1.69-1.69v-70a74.68,74.68,0,0,1,10.64-.74,94.25,94.25,0,0,1,38.27,8.35l1.7-1.7h0l9-9h0l2.82-2.82h0l1.84-1.84v42.15c0,43.75,23,67.35,71.09,67.35,29.64,0,45.18-3.74,45.18-3.74l3.39-3.39h0l2.82-2.82h0l2.83-2.82h0l6.21-6.21h0l2.82-2.82h0l2.82-2.82h0l6.21-6.21h0l.82-.82c4.92,12.37,12.19,21.29,21.86,27l-4.29,4.3h0l-2.82,2.82h0l-2.83,2.83h0l-3.38,3.38v63.32A207,207,0,0,0,816,536.82c38.9,0,69.88-8.87,91-29.21.19-.18.37-.38.56-.57s.37-.38.57-.56.37-.38.56-.57.37-.38.57-.56.37-.38.56-.56l.56-.57c.2-.18.38-.38.57-.56l.56-.57c.2-.18.38-.38.57-.56s.37-.38.56-.57.37-.38.57-.56.37-.38.56-.57.38-.38.57-.56.37-.38.56-.57.37-.38.57-.56.37-.38.56-.57.37-.38.57-.56l.56-.56.56-.57c.2-.18.38-.38.57-.56l.56-.57c.2-.18.38-.38.57-.56s.37-.38.56-.57.38-.38.57-.56.37-.38.56-.57.38-.38.57-.56.37-.38.56-.57.37-.38.57-.56.37-.38.56-.57.37-.38.57-.56.37-.38.56-.56l.56-.57c.2-.18.38-.38.57-.56l.56-.57c.2-.18.38-.38.57-.56l.56-.57c.2-.18.38-.38.57-.56s.37-.38.56-.57.38-.38.57-.56.37-.38.56-.57.37-.38.57-.56.37-.38.56-.57.37-.38.57-.56.37-.38.56-.56.37-.39.56-.57.38-.38.57-.56l.56-.57c.2-.18.38-.38.57-.56l.56-.57c.2-.18.38-.38.57-.56,13.37-12.61,22.88-29.73,28.08-52v24.23H1041l3.39-3.39h0l2.82-2.82h0l2.82-2.82h0l6.21-6.21h0l2.83-2.83h0l2.82-2.82h0l6.21-6.21h0l.55-.55,7.46,27.65h77.71l3.39-3.39h0l2.82-2.82h0l2.82-2.82h0l6.21-6.21h0l2.83-2.83h0l2.82-2.82h0l6.21-6.21h0l1.69-1.69,6-22.52v51.31h77.71l1.69-1.69h0l9-9h0l2.82-2.82h0l6.21-6.21h0l2.82-2.82h0l.08-.07c8.85,17.34,29,28.41,61,28.41,32.52,0,52.1-15.54,58.71-22.16v16.4H1574l3.39-3.39h0l2.83-2.82h0l2.82-2.82h0l6.21-6.21h0l2.82-2.83h0l2.83-2.82h0l5.69-5.69,11.69,26.58H1690l3.39-3.39h0l2.82-2.82h0l2.82-2.82h0l6.21-6.21h0l2.83-2.83h0l2.82-2.82h0l6.21-6.21h0l1.69-1.69-53-80.59Z"/><path class="cls-3" d="M439.44,331.31v91.53H364.61V406.43c-6.62,6.62-26.19,22.16-58.71,22.16-44.33,0-66.2-21.3-66.2-51.23s26.77-47.77,77.13-47.77h45.48c-4.61-10.94-16.7-16.41-32.53-16.41-31.65,0-63.31,12.67-63.31,12.67V265.41a302.17,302.17,0,0,1,76-9.79C399.14,255.62,439.44,285,439.44,331.31Zm-74.83,46.63V353.76H342.45c-18.42,0-27.34,6.05-27.34,17s8.34,17,22.16,17S360.29,382,364.61,377.94Z"/><path class="cls-3" d="M613.89,255.62v76a94.36,94.36,0,0,0-38.28-8.34c-26.19,0-39.43,11.51-39.43,24.17v75.41H461.35V261.38l74.83-8.64V298.5C546.54,276.63,568.42,255.62,613.89,255.62Z"/><path class="cls-3" d="M704.1,261.38h41.45v51.8H704.1v36.55C704.1,363,711,371,722.81,371a70.23,70.23,0,0,0,22.74-3.74V422s-15.54,3.74-45.19,3.74c-48.06,0-71.08-23.6-71.08-67.34v-97L683.09,207h21Z"/><path class="cls-3" d="M893.09,215.62,967.92,207V383.12c0,90.08-46,124.9-123.18,124.9A207,207,0,0,1,782,497.66V434.35c19.86,9.49,38,12.66,53.24,12.66,36.84,0,57.85-19.86,57.85-50.36v-7.78c-11.51,19-31.94,39.72-65.9,39.72-41.74,0-61.59-27-61.59-86.34V261.38l75.11-8.64V329.3c0,30.51,10.08,41.73,24.47,41.73,14.1,0,23.6-10.07,27.91-15.54Z"/><path class="cls-3" d="M155.63,207H32.14V383.12a201,201,0,0,0,3.6,39.72C48,483.62,90.77,508,155.35,508a207,207,0,0,0,62.73-10.36V434.35c-19.85,9.5-38,12.66-53.24,12.66-36.83,0-55-19.85-55-50.36V358.09h45.78c33.44,0,65.1-13.1,78.86-41.59,4.6-9.52,7.19-20.78,7.19-33.81C241.68,230.28,200.24,207,155.63,207Zm3.74,103.09c-4.89,6.12-13.81,9.46-27.34,9.46H109.85V270.31H132c13.53,0,22.45,3.34,27.34,9.53,3.11,3.94,4.61,9.06,4.61,15.22S162.48,306.14,159.37,310.06Z"/><path class="cls-3" d="M1295.17,207V422.84h-77.71V292.75l-34.83,130.09h-77.7l-35.11-130.09V422.84H992.11V207H1113l30.79,114.26L1174.29,207Z"/><path class="cls-3" d="M1512.32,331.31v91.53h-74.83V406.43c-6.62,6.62-26.19,22.16-58.71,22.16-44.32,0-66.2-21.3-66.2-51.23s26.77-47.77,77.14-47.77h45.47c-4.61-10.94-16.69-16.41-32.52-16.41-31.66,0-63.32,12.67-63.32,12.67V265.41a302.17,302.17,0,0,1,76-9.79C1472,255.62,1512.32,285,1512.32,331.31Zm-74.83,46.63V353.76h-22.16c-18.42,0-27.34,6.05-27.34,17s8.34,17,22.16,17S1433.17,382,1437.49,377.94Z"/><path class="cls-3" d="M1718.8,422.84h-77.7l-19-43.17-19.28,43.17h-77.71l53-80.59-53-80.87h77.71l19.28,43.17,19-43.17h77.7l-53,80.87Z"/><path class="cls-4" d="M1570.79,3.48C1465.4.62,1370.08,44.86,1304.37,116.65A44.61,44.61,0,0,0,1314.51,185h0a44.63,44.63,0,0,0,55.8-8.23,258.26,258.26,0,0,1,192.56-84.15c138.64.9,253,112.53,257.07,251.11a258.15,258.15,0,0,1-14.1,92.45A44.84,44.84,0,0,0,1825,489.62l.07,0A44.58,44.58,0,0,0,1890,466.19a346.78,346.78,0,0,0,19.39-117.6C1907.79,162,1757.36,8.54,1570.79,3.48Z"/><path class="cls-5" d="M1327.23,136l-9.75,10.22-6.35-6.06,27-28.24,6.34,6.06-9.76,10.22,26.59,25.39-7.45,7.8Z"/><path class="cls-5" d="M1358.36,123.63c-8.8-11.82-7.29-24.37,4-32.81s23.74-6.24,32.54,5.58,7.22,24.26-4.06,32.66S1367.12,135.39,1358.36,123.63ZM1386.13,103c-5.6-7.51-12.53-9.53-18.49-5.09s-6.11,11.64-.47,19.21,12.45,9.43,18.47,5S1391.73,110.47,1386.13,103Z"/><path class="cls-5" d="M1392,71.22l15.47-8.13c12.75-6.7,24.71-3.23,31.32,9.34s2.61,24.27-10.13,31l-15.48,8.13Zm37.06,6.32c-4.14-7.88-10.6-10.39-17.54-6.75l-6,3.15,13.09,24.9,6-3.15C1431.56,92.05,1433.2,85.36,1429.08,77.54Z"/><path class="cls-5" d="M1445.66,69.39c-4.55-14,.9-25.43,14.34-29.79s24.49,1.7,29,15.72-1,25.3-14.33,29.64S1450.18,83.34,1445.66,69.39Zm32.93-10.68c-2.89-8.92-8.81-13.05-15.88-10.76s-9.52,9.07-6.61,18,8.77,12.93,15.91,10.61S1481.48,67.63,1478.59,58.71Z"/><path class="cls-5" d="M1510.79,28.16l17.66-1.8c11.19-1.15,18.7,3.81,19.67,13.33,1,9.73-5.43,16-16.42,17.17l-7.13.73,1.52,14.79-10.66,1.09Zm11.53,7.37,1.39,13.59,6.53-.66c5.19-.54,7.31-3.51,6.9-7.58s-3.23-6.53-8-6Z"/><path class="cls-5" d="M1580.72,62.32l-17.87-.68L1559.52,70l-10.78-.41,18.34-44.87,12.85.49,14.92,46.15-11.44-.44Zm-14.61-8.8,12,.46L1574,40.69l-1.14-5.21-1.6,5.1Z"/><path class="cls-5" d="M1607.06,27.52l18.26,3.6c10.45,2.05,15.85,8.57,14.23,16.85-1,4.93-3.68,7.94-7.64,9.35,1.74,1.91,2.55,4.39,2.69,7.83l.66,14.33-11-2.16-.2-12.19c-.06-4.17-1.28-5.3-5.09-6l-7-1.37-3.26,16.56-10.51-2.07Zm8.87,10.41-2.29,11.63,7.29,1.44c4.41.86,7-1.09,7.66-4.57s-1-6.21-5.11-7Z"/><path class="cls-5" d="M1670.22,82.91l-16.77-6.21-5.78,6.92-10.11-3.74L1669,43l12,4.47-.18,48.49-10.74-4ZM1659.08,70l11.24,4.16.23-13.91.53-5.3L1668,59.29Z"/><path class="cls-5" d="M1725.75,79.29l-12-7.51,4.67-7.43,33.07,20.76-4.67,7.43-12-7.51-19.55,31.13-9.13-5.73Z"/><path class="cls-5" d="M1744.42,139.53c-9.17-7.93-10.14-18.07-2.68-26.68l18.46-21.31,8.15,7-18.46,21.32c-4,4.61-4,9.5.18,13.09s9,2.92,13-1.69L1781.51,110l8.1,7-18.45,21.31C1763.7,146.93,1753.48,147.38,1744.42,139.53Z"/><path class="cls-5" d="M1798.5,175.35c-7.15,6.06-16.31,3.64-23.2-4.48s-8.16-17.31-1.29-25.25l7.32,8.64c-2.86,3.56-2.72,7.57.4,11.25s6.25,4.36,8.65,2.33c7.76-6.58-15.52-22.05-1.78-33.7,5.83-4.93,14.64-4.06,21.87,4.47,6.1,7.21,8,16.34.85,24.21l-7.4-8.74c2.81-3.61,2.76-7-.1-10.36-2.42-2.86-5.27-3.53-7.31-1.79C1789.1,148.2,1812.7,163.31,1798.5,175.35Z"/><path class="cls-5" d="M1838.29,177.65l16.08,28.45-7.4,4.19-10.81-19.12-9.68,5.47,9.52,16.85-7.4,4.18-9.53-16.85-15.15,8.57-5.28-9.33Z"/><path class="cls-5" d="M1858.24,215.17l4.31,9.8-41.67,18.34-4.32-9.8Z"/><path class="cls-5" d="M1867.57,236.67l10,31.11-8.1,2.61-6.72-20.91-9.12,2.93,5.92,18.42-7.9,2.54L1845.73,255l-10.14,3.26,6.72,20.91-8.1,2.6-10-31.11Z"/><path class="cls-5" d="M1855.19,320.7c-9.24,1.58-15.9-5.17-17.69-15.66s1.78-19.06,11.74-22.39l1.91,11.16c-4.28,1.61-6.2,5.13-5.38,9.89s3.15,6.93,6.25,6.4c10-1.71-2.14-26.88,15.62-29.9,7.53-1.29,14.67,3.95,16.55,15,1.59,9.31-1.46,18.12-11.59,21.27l-1.93-11.29c4.27-1.68,5.94-4.61,5.2-9-.63-3.69-2.74-5.71-5.38-5.26C1860.92,292.55,1873.54,317.57,1855.19,320.7Z"/><path class="cls-5" d="M1879,338l-.36-14.13,8.77-.22,1,39-8.77.22-.35-14.13-36.76.92-.27-10.78Z"/><path class="cls-5" d="M1848.23,391.73l2-17.78-8.13-3.92,1.18-10.72,43.45,21.48-1.41,12.78-47.08,11.6,1.25-11.38Zm9.82-14-1.31,11.92,13.55-3.17,5.27-.76-5-2Z"/><path class="cls-5" d="M1841.28,446c-9.06-2.4-12.31-11.3-9.58-21.59s9.53-16.6,20-15.49l-2.9,10.94c-4.56-.31-7.76,2.1-9,6.76s0,7.62,3,8.42c9.84,2.61,9.22-25.33,26.63-20.71,7.38,2,11.7,9.69,8.83,20.49-2.42,9.13-8.85,15.88-19.37,14.54l2.93-11.07c4.58.25,7.32-1.73,8.46-6,1-3.63-.12-6.34-2.71-7C1858.18,422.78,1859.27,450.79,1841.28,446Z"/></g></g></svg>