<svg xmlns="http://www.w3.org/2000/svg" viewBox="0 0 1906 538.28"><defs><style>.cls-1{fill:#6fddef;}.cls-2{fill:#0a1b33;}.cls-3{fill:#ff0090;}.cls-4{fill:#e2f8fc;}</style></defs><g id="Capa_2" data-name="Capa 2"><g id="Capa_1-2" data-name="Capa 1"><path class="cls-1" d="M1712.79,260.46h-77.44l-3.37,3.38h0l-2.82,2.81h0l-9,9h0l-2.81,2.82h0l-8.37,8.36-11.77-26.37h-77.44l-1.68,1.69h0l-6.19,6.19h0l-2.82,2.81h0l-2.81,2.81h0l-6.19,6.19h0l-2.81,2.82h0l-2.82,2.81h0l-1.84,1.84c-16.5-20.83-46-32.89-82.24-32.89a301.34,301.34,0,0,0-75.71,9.75l-3.37,3.37h0l-2.81,2.82h0l-9,9h0l-2.81,2.81h0l-9,9h0l-17,17V206.26H1170.18l-3.38,3.37h0l-2.81,2.82h0l-9,9h0l-2.82,2.81h0l-9,9h0l-1.69,1.69-12.27,46-20.12-74.65H988.64l-24.11,24.09V206.26L890,214.86l-1.69,1.69h0l-6.19,6.19h0l-2.81,2.81h0l-2.82,2.81h0l-6.19,6.19h0l-2.81,2.82h0l-2.81,2.81h0l-26.88,26.88v-15.2l-74.85,8.6-1.69,1.69h0L755,268.34h0l-2.81,2.81h0L749.41,274h0l-6.19,6.19h0l-.28.29v-20h-41.3v-54.2H680.7l-.55.56h0l-.55.56h0l-.56.56h0l-.56.57h0l-.55.56h0l-.56.56h0l-.56.57h0l-.56.56h0l-.55.56h0l-.56.56h0l-.56.57h0L674,213h0l-.55.56h0l-.56.56h0l-.56.57h0l-.55.56h0l-.55.56h0l-.56.56h0L670,217h0l-.55.56h0l-.56.56h0l-.56.56h0l-.56.57h0l-.55.56h0l-.56.56h0l-.56.57h0l-.56.56h0L665,222h0l-.56.56h0l-.56.57h0l-.55.56h0l-.55.56h0l-.56.56h0l-.56.57h0L661,226h0l-.56.56h0l-.56.57h0l-.56.56h0l-.55.56h0l-.56.56h0l-.56.57h0l-.56.56h0l-.55.56h0L656,231h0l-.56.57h0l-.56.56h0l-.55.56h0l-.56.56h0l-.56.57h0l-.55.56h0L652,235h0l-40.27,40.7V254.73c-31.28,0-51.35,10-64.18,23.33-.18.19-.38.37-.56.56s-.38.37-.56.56l-.57.56-.56.57c-.18.19-.38.37-.56.56s-.38.37-.56.56l-.57.57-.56.56c-.18.19-.38.37-.56.56s-.38.37-.56.56l-.57.57-.56.56c-.19.19-.38.37-.56.56s-.38.37-.56.56-.39.38-.57.57-.38.37-.56.56-.38.37-.56.56-.38.37-.56.56-.39.38-.57.57-.38.37-.56.56-.38.37-.56.56l-.57.57c-.18.18-.38.37-.56.56l-.31.3V251.86l-74.57,8.6-3.38,3.38h0l-2.81,2.81h0l-9,9h0l-2.82,2.82h0l-9,9h0L431,289.16v10.37c-13.75-28.09-47.09-44.8-89.79-44.8a301.24,301.24,0,0,0-75.71,9.75l-3.38,3.37h0l-2.81,2.82h0l-9,9h0l-2.81,2.81h0l-7.05,7c.22-2.54.36-5.14.36-7.84,0-52.22-41.3-75.45-85.75-75.45H32l-1.69,1.69h0l-2.81,2.81h0l-3.37,3.38h0l-2.82,2.81h0l-1.12,1.13h0l-1.69,1.69h0l-2.81,2.81h0l-3.38,3.38h0l-1.13,1.12h0l-1.68,1.69h0L8.4,229.87h0l-1.69,1.69h0L3.9,234.38h0l-.56.56V410.47a200.48,200.48,0,0,0,3.58,39.58c12.19,60.57,54.83,84.89,119.19,84.89a206.16,206.16,0,0,0,62.52-10.33l3.37-3.37h0l11.82-11.82h0l11.81-11.81h0l1.69-1.69h0V432.83c-19.79,9.46-37.85,12.61-53,12.61-36.71,0-54.81-19.78-54.81-50.18v-9.73h16.93c25.2,0,49.37-7.48,65.6-23.4l.56-.56c.19-.18.37-.38.56-.56l.56-.57.57-.56.56-.56c.19-.18.37-.38.56-.57l.56-.56.57-.56.56-.56.56-.57.56-.56.57-.56.56-.56.56-.57.56-.56c.2-.18.38-.37.57-.56l.56-.56.56-.57.57-.56.56-.56c.19-.18.37-.38.56-.57l.56-.56.57-.56.56-.56.56-.57.56-.56.57-.56.56-.56.56-.57.56-.56c.2-.18.38-.38.57-.56l.56-.56.56-.57.56-.56c.2-.18.38-.38.57-.56l.56-.56.56-.57.57-.56.56-.56c.19-.18.37-.38.56-.57l.56-.56.57-.56.56-.56.56-.57.56-.56.57-.56.56-.56.56-.57.56-.56c.2-.18.38-.38.57-.56a64.62,64.62,0,0,0,13.55-18.61,68.1,68.1,0,0,0,3.17-7.83V353.4s4.4-1.76,11.56-4l-.35.37c-.19.19-.38.37-.56.56l-.56.57-.57.56-.56.56-.56.57-.57.56-.56.56-.56.56-.56.57-.57.56-.56.56-.56.56-.56.57-.57.56-.56.56-.56.56-.56.57-.57.56-.56.56-.56.56-.57.57c-.18.19-.37.37-.56.56l-.56.56-.56.57-.57.56c-.18.19-.37.37-.56.56l-.56.56-.56.57-.57.56c-.18.19-.38.37-.56.56l-.56.56-.56.57-.57.56c-.18.19-.38.37-.56.56l-.56.57c-.19.18-.38.37-.56.56l-.57.56-.56.56-.56.57c-.19.18-.38.37-.56.56s-.39.37-.57.56l-.56.56-.56.57-.57.56-.56.56-.56.56-.56.57c-7.55,7.54-11.44,17.13-11.44,28.48,0,29.83,21.8,51,66,51,32.41,0,51.91-15.48,58.51-22.08v16.35H409.2l3.38-3.38h0l2.81-2.81h0l2.82-2.81h0l6.19-6.19h0l2.81-2.82h0l2.81-2.81h0l1-1v21.84h74.57l3.38-3.38h0l2.81-2.81h0l2.81-2.81h0l6.19-6.19h0l2.82-2.82h0l2.81-2.81h0l6.19-6.19h0l1.69-1.69v-69.8a75.5,75.5,0,0,1,10.59-.73,94.1,94.1,0,0,1,38.15,8.31l1.68-1.69h0l9-9h0l2.81-2.81h0l1.83-1.83v42c0,43.59,22.94,67.11,70.84,67.11,29.54,0,45-3.73,45-3.73l3.38-3.38h0l2.81-2.81h0l2.82-2.81h0l6.18-6.19h0l2.81-2.82h0l2.81-2.81h0l6.19-6.19h0l.82-.81c4.9,12.33,12.14,21.22,21.78,26.87l-4.28,4.28h0l-2.81,2.81h0l-2.82,2.81h0l-3.37,3.38v63.09a206.16,206.16,0,0,0,62.52,10.33c38.76,0,69.64-8.84,90.73-29.11l.56-.56c.2-.18.38-.38.57-.57l.56-.56c.19-.18.37-.38.56-.56s.37-.38.57-.56l.56-.57.56-.56c.19-.18.37-.38.56-.56s.37-.38.57-.56l.56-.57.56-.56c.19-.18.37-.38.56-.56s.38-.38.57-.57.37-.37.56-.56l.56-.56c.19-.18.37-.38.56-.56s.38-.38.57-.57.37-.37.56-.56l.56-.56c.19-.18.37-.38.56-.56l.57-.57c.19-.18.37-.38.56-.56l.56-.56c.2-.18.37-.38.57-.56l.56-.57c.19-.18.37-.38.56-.56l.56-.56c.2-.18.37-.38.57-.56l.56-.57c.19-.18.37-.38.56-.56l.56-.56c.2-.18.37-.38.56-.56l.57-.57c.19-.18.37-.38.56-.56s.37-.38.57-.56l.56-.57.56-.56c.19-.18.37-.38.56-.56l.56-.56c.2-.19.38-.38.57-.57l.56-.56c.19-.18.37-.38.56-.56s.37-.38.57-.56l.56-.57.56-.56c.19-.18.37-.38.56-.56s.38-.38.57-.57.37-.37.56-.56l.56-.56c.19-.18.37-.38.56-.56,13.33-12.57,22.81-29.63,28-51.8v24.15h77.44l3.37-3.38h0l2.81-2.81h0l2.82-2.81h0l6.19-6.19h0l2.81-2.82h0l2.81-2.81h0l6.19-6.19h0l.55-.54,7.43,27.55h77.44l3.38-3.38h0l2.81-2.81h0l2.81-2.81h0l6.19-6.19h0l2.81-2.82h0l2.82-2.81h0l6.19-6.19h0l1.68-1.69,6-22.44v51.14h77.44l1.68-1.69h0l9-9h0l2.81-2.82h0l6.19-6.18h0l2.81-2.81h0l.07-.07c8.83,17.28,29,28.31,60.75,28.31,32.4,0,51.91-15.48,58.5-22.08v16.35h164.75l3.38-3.38h0l2.81-2.81h0l2.82-2.81h0l6.19-6.18h0l2.81-2.82h0l2.81-2.81h0l5.67-5.67,11.66,26.49h77.43l3.38-3.38h0l2.81-2.81h0l2.81-2.81h0l6.19-6.19h0l2.82-2.82h0l2.81-2.81h0l6.19-6.19h0l1.69-1.69L1660,341.05Z"/><path class="cls-2" d="M813.09,538.28a207.42,207.42,0,0,1-63.65-10.53,3.32,3.32,0,0,1-2.21-3.14V461.52a3.32,3.32,0,0,1,1-2.36l10.36-10.37c-7.32-5.2-13.22-12.44-17.6-21.61L716.6,451.55a3.31,3.31,0,0,1-1.58.88c-.64.16-16.21,3.82-45.8,3.82-48.53,0-74.18-24.36-74.18-70.44V351.86l-9.63,9.63a3.33,3.33,0,0,1-3.85.63,91.5,91.5,0,0,0-36.66-8,72.17,72.17,0,0,0-7.26.36v66.84a3.34,3.34,0,0,1-1,2.36L508,452.41a3.37,3.37,0,0,1-2.36,1H431a3.33,3.33,0,0,1-3.33-3.33V436.26l-16.15,16.15a3.34,3.34,0,0,1-2.36,1H334.64a3.34,3.34,0,0,1-3.34-3.33v-9c-9.33,7.3-27.76,18.07-55.17,18.07-24.64,0-43.65-6.56-55.47-18.47v55.27a3.38,3.38,0,0,1-1,2.36L191,527a3.15,3.15,0,0,1-1.22.78,207.65,207.65,0,0,1-63.65,10.52c-70.55,0-110.6-28.64-122.46-87.56A205,205,0,0,1,0,410.48V234.94a3.3,3.3,0,0,1,1-2.36l28.69-28.7a3.37,3.37,0,0,1,2.36-1H155.09c41,0,88.76,20.5,89.08,78.21l19-19a3.34,3.34,0,0,1,1.42-.85,302,302,0,0,1,76.65-9.88c38.47,0,69.92,13.46,86.69,36.55a3.23,3.23,0,0,1,.75-1.14l28.69-28.7a3.3,3.3,0,0,1,2-1l74.56-8.61a3.34,3.34,0,0,1,3.72,3.32v31.4l7.55-7.55c15.5-16.13,37.9-24.32,66.55-24.32a3.34,3.34,0,0,1,3.34,3.34v12.8l34.56-34.93.12-.12.44-.44.12-.12.44-.44.13-.12.43-.44.13-.12.44-.44.12-.13.44-.44.13-.12.43-.44.13-.12.44-.44.12-.12.44-.44.12-.13.44-.44.13-.12.43-.44.13-.12.44-.44a1.36,1.36,0,0,1,.12-.12l.44-.45.13-.12.43-.44.13-.12.43-.44.13-.12.43-.44.13-.13.44-.44.12-.12.44-.44.13-.12.43-.44.13-.12.44-.44.12-.13.44-.44.13-.12.43-.44.13-.12.43-.44.13-.12.44-.44a.8.8,0,0,1,.13-.13l.43-.44.13-.12.43-.44.12-.12.44-.44.14-.13,1-1a1.14,1.14,0,0,0,.11-.11l.44-.44.13-.12.44-.44a.68.68,0,0,1,.12-.12l.44-.45.13-.12,1-1,.12-.11.43-.44.13-.13.44-.44.12-.12.44-.44a1.59,1.59,0,0,0,.13-.13l1-1a1.36,1.36,0,0,1,.12-.12l1-1,.12-.11.43-.44.13-.13,1-1,.12-.11,1-1,.12-.11.44-.45.13-.12,2.69-2.7a3.34,3.34,0,0,1,2.36-1h20.94a3.34,3.34,0,0,1,3.34,3.34v50.86h38a3.34,3.34,0,0,1,3.33,3.34v11.92l14.29-14.28a3.3,3.3,0,0,1,2-1l74.85-8.61a3.35,3.35,0,0,1,3.72,3.32V259l46.5-46.5a3.3,3.3,0,0,1,2-.95l74.56-8.61a3.28,3.28,0,0,1,2.6.83,3.34,3.34,0,0,1,1.12,2.49v16l18.41-18.4a3.3,3.3,0,0,1,2.36-1h120.45a3.33,3.33,0,0,1,3.22,2.47L1129.19,268l9.07-33.94a3.38,3.38,0,0,1,.86-1.5l28.7-28.69a3.3,3.3,0,0,1,2.36-1h120.45a3.34,3.34,0,0,1,3.34,3.34v94.19l38.33-38.33a3.37,3.37,0,0,1,1.43-.85,301.85,301.85,0,0,1,76.64-9.88c35.08,0,64.87,11.36,82.46,31.29l24.58-24.58a3.38,3.38,0,0,1,2.36-1h77.44a3.33,3.33,0,0,1,3,2l9.8,21.94L1633,258.1a3.38,3.38,0,0,1,2.36-1h77.44a3.34,3.34,0,0,1,2.79,5.17L1664,341.05l51.57,78.47a3.34,3.34,0,0,1-.43,4.19l-28.7,28.7a3.35,3.35,0,0,1-2.36,1h-77.43a3.33,3.33,0,0,1-3.06-2l-9.69-22-23,23a3.33,3.33,0,0,1-2.35,1H1403.76a3.33,3.33,0,0,1-3.33-3.33v-9c-9.34,7.3-27.77,18.07-55.17,18.07-29,0-50.61-9.26-61.47-26.21l-19.49,19.5a3.37,3.37,0,0,1-2.36,1H1184.5a3.33,3.33,0,0,1-3.33-3.33v-26.7a2.74,2.74,0,0,1-.32.36l-28.69,28.7a3.37,3.37,0,0,1-2.36,1h-77.43a3.35,3.35,0,0,1-3.23-2.46l-5.93-22-23.47,23.48a3.37,3.37,0,0,1-2.36,1H959.94a3.33,3.33,0,0,1-3.33-3.33V447.2a95.39,95.39,0,0,1-22.37,32.92l-.16.17c-.13.14-.26.27-.4.4l-.16.16c-.13.14-.27.27-.41.4l-.72.73-.4.4-.16.16-.41.4-.15.16c-.13.14-.27.27-.41.4l-.16.17c-.13.13-.26.27-.4.4l-.72.72c-.13.14-.27.27-.4.4l-.16.16-.41.41-.15.15c-.14.14-.27.28-.41.41l-.16.16-.4.4-1.86,1.86-.39.39-.15.15c-.14.14-.27.28-.41.41l-2.41,2.41-.41.41-2.41,2.41c-.13.13-.26.27-.4.4l-2.41,2.41-.4.4-3,3-.4.4-.16.16c-.13.13-.26.27-.4.4l-4.67,4.67-.4.4-.72.72c-.13.14-.27.27-.41.4C885.09,528.45,854.66,538.28,813.09,538.28Zm-59.18-16.07c7.28,2.33,31.63,9.39,59.18,9.39,39.76,0,68.68-9.22,88.42-28.18l28.13-28.13c13.06-12.31,22.15-29.17,27.05-50.15a3.34,3.34,0,0,1,6.59.76v20.81H1036l26.58-26.57a3.31,3.31,0,0,1,3.22-.87,3.35,3.35,0,0,1,2.36,2.36l6.77,25.08h73.5l27.08-27.08,5.78-21.58a3.34,3.34,0,0,1,6.56.86v47.8h72.71l21.53-21.53a3.43,3.43,0,0,1,2.92-1,3.35,3.35,0,0,1,2.48,1.74c8.86,17.34,28.83,26.5,57.78,26.5,32.51,0,51.19-16.16,56.14-21.11a3.34,3.34,0,0,1,5.7,2.36v13h160l25.51-25.51a3.34,3.34,0,0,1,5.42,1l10.77,24.49h73.88l25.8-25.8-51.28-78a3.35,3.35,0,0,1,0-3.66l49.39-75.42h-69.88l-25.39,25.39a3.33,3.33,0,0,1-5.4-1L1595,263.8h-73.88L1495,290a3.37,3.37,0,0,1-2.55,1,3.3,3.3,0,0,1-2.42-1.26c-15.93-20.1-45-31.63-79.63-31.63a303.42,303.42,0,0,0-74,9.4L1293,310.87a3.33,3.33,0,0,1-5.69-2.36V209.59H1171.56l-27.09,27.09-12,45.09a3.33,3.33,0,0,1-3.22,2.48h0a3.33,3.33,0,0,1-3.22-2.47l-19.46-72.19H990l-23.13,23.12a3.33,3.33,0,0,1-5.69-2.36V210l-69.69,8-51.38,51.38a3.34,3.34,0,0,1-5.7-2.36V255.6l-70,8L745.29,282.8a3.34,3.34,0,0,1-5.69-2.36V263.8h-38a3.35,3.35,0,0,1-3.34-3.34V209.59H682.09l-1.83,1.84-.12.11-.43.44-.13.12-1,1-.12.11-1,1-.11.11-.44.44-.12.12-1,1a1.14,1.14,0,0,1-.11.11l-1,1-.11.1-.44.44-.13.13-.43.44-.13.12-.43.44-.13.12-1,1-.12.11-.43.44-.13.12-.44.44-.12.12-.44.44-.12.12-1,1a.57.57,0,0,1-.11.11l-.43.44-.13.12-.44.44a.8.8,0,0,1-.13.13l-.43.44-.13.12-.43.44-.13.12-.44.44-.12.12-.44.44a.68.68,0,0,1-.12.12l-.44.45-.13.12-.44.44-.12.12-.44.44-.12.12-.44.45-.13.12-.43.44-.12.12-.44.44-.13.12-.44.44-.12.12-.44.45-.13.12-.43.44-.13.12-.44.44-.12.12-.44.44-.12.13-.44.44-.13.12-.43.44-.13.12-.44.44-.12.12-.44.44-.12.12-.44.45-.13.12-.43.44-.13.12-.44.44-.12.12-.44.44-.13.13-.43.44-.13.12L614.11,278a3.34,3.34,0,0,1-5.71-2.35V258.1c-25.16.6-44.8,8.09-58.43,22.27L537,293.31l-.28.27a3.52,3.52,0,0,1-3.69.7,3.3,3.3,0,0,1-2.09-3V255.6l-69.69,8-26.9,26.9v9a3.34,3.34,0,0,1-6.33,1.47c-13.16-26.89-45.61-42.94-86.8-42.94a303.54,303.54,0,0,0-74,9.4l-24.43,24.43a3.33,3.33,0,0,1-5.68-2.64c.23-2.69.34-5.17.34-7.56,0-53.22-44.4-72.11-82.41-72.11H33.41L6.67,236.32V410.48a198.56,198.56,0,0,0,3.52,38.91c11.14,55.32,49.05,82.21,115.92,82.21,30,0,56.19-8.37,60.7-9.89L214,494.54V438a124.2,124.2,0,0,1-49.71,10.76c-37,0-58.14-19.51-58.14-53.52v-9.73a3.33,3.33,0,0,1,3.33-3.34h16.93c26.05,0,48.51-8,63.26-22.44l28.12-28.13a61.34,61.34,0,0,0,12.89-17.68,63.12,63.12,0,0,0,3-7.44,3.34,3.34,0,0,1,6.5,1.06v41.06c1.9-.67,4.35-1.49,7.24-2.38a3.34,3.34,0,0,1,3.34,5.55l-.29.31-1.14,1.14-.21.21-.35.35-.21.21-.35.35-.21.21-2.61,2.61-.21.21-5.41,5.41-.2.2L224,378.57c-7,7-10.49,15.76-10.49,26.16,0,30.33,22.82,47.72,62.62,47.72,32.52,0,51.2-16.16,56.15-21.11A3.34,3.34,0,0,1,338,433.7v13h69.85l20.86-20.86a3.34,3.34,0,0,1,5.7,2.36v18.5h69.85L531,420V351.55a3.35,3.35,0,0,1,2.87-3.31,79.22,79.22,0,0,1,11.06-.76,98.33,98.33,0,0,1,37.42,7.66l13.7-13.7a3.34,3.34,0,0,1,5.7,2.36v42c0,42.91,22.08,63.77,67.5,63.77,24.83,0,39.7-2.7,43.36-3.45L739.71,419a3.35,3.35,0,0,1,5.46,1.13c4.63,11.66,11.3,19.91,20.37,25.23a3.34,3.34,0,0,1,.67,5.24l-12.3,12.3ZM112.8,388.86v6.4c0,30.21,18.28,46.85,51.47,46.85,16.33,0,32.82-3.73,49-11.1-4.26-7.46-6.49-16.28-6.49-26.28,0-12.23,4.18-22.61,12.42-30.84l17.18-17.18a3.33,3.33,0,0,1-2.92-3.31V322.65a68.2,68.2,0,0,1-11.08,13.76l-28.14,28.13c-16,15.67-40.1,24.32-67.9,24.32Z"/><path class="cls-3" d="M437.9,330.15v91.2H363.33V405c-6.59,6.59-26.1,22.08-58.5,22.08-44.17,0-66-21.22-66-51s26.68-47.61,76.86-47.61H361c-4.59-10.9-16.64-16.35-32.41-16.35-31.55,0-63.09,12.62-63.09,12.62V264.48a301,301,0,0,1,75.71-9.76C397.75,254.72,437.9,284,437.9,330.15Zm-74.57,46.46V352.52H341.25c-18.36,0-27.25,6-27.25,16.92s8.32,16.92,22.09,16.92S359,380.63,363.33,376.61Z"/><path class="cls-2" d="M304.83,430.43c-43.4,0-69.3-20.34-69.3-54.39,0-32.38,29.23-51,80.2-51H355.2c-5.08-6.27-14.28-9.67-26.57-9.67-30.55,0-61.54,12.26-61.86,12.38a3.33,3.33,0,0,1-4.57-3.1V264.48a3.35,3.35,0,0,1,2.4-3.21,302,302,0,0,1,76.65-9.88c59.81,0,100,31.65,100,78.76v91.2a3.34,3.34,0,0,1-3.34,3.34H363.33a3.33,3.33,0,0,1-3.33-3.34v-9C350.66,419.65,332.23,430.43,304.83,430.43Zm10.9-98.66c-47.42,0-73.53,15.72-73.53,44.27,0,30.32,22.83,47.71,62.63,47.71,32.51,0,51.19-16.15,56.14-21.1a3.34,3.34,0,0,1,5.7,2.36v13h67.89V330.15c0-43.12-37.5-72.09-93.31-72.09a306.17,306.17,0,0,0-72.38,9v52.87c10-3.5,34.67-11.16,59.76-11.16,17.89,0,30.49,6.53,35.49,18.39a3.34,3.34,0,0,1-3.08,4.63Zm20.36,57.93c-15.92,0-25.42-7.57-25.42-20.26,0-9.24,5.3-20.25,30.58-20.25h22.08a3.33,3.33,0,0,1,3.34,3.33v24.09a3.31,3.31,0,0,1-1.06,2.44C362.18,382.25,352.44,389.7,336.09,389.7Zm5.16-33.84c-15.86,0-23.91,4.57-23.91,13.58,0,11.82,11.75,13.59,18.75,13.59,12.65,0,20.66-5.26,23.91-7.93V355.86Zm22.08,20.75h0Z"/><path class="cls-3" d="M611.74,254.72v75.72a93.93,93.93,0,0,0-38.14-8.32c-26.1,0-39.29,11.47-39.29,24.09v75.14H459.74V260.46l74.57-8.6v45.6C544.63,275.66,566.43,254.72,611.74,254.72Z"/><path class="cls-2" d="M534.31,424.69H459.74a3.34,3.34,0,0,1-3.34-3.34V260.46a3.33,3.33,0,0,1,3-3.31l74.56-8.61a3.34,3.34,0,0,1,3.72,3.32V285c11.87-17.17,33.77-33.61,74.1-33.61a3.34,3.34,0,0,1,3.34,3.34v75.71a3.34,3.34,0,0,1-4.83,3,91.57,91.57,0,0,0-36.65-8c-24.84,0-36,10.42-36,20.75v75.14A3.33,3.33,0,0,1,534.31,424.69ZM463.08,418H531V346.21c0-13.65,13.18-27.42,42.63-27.42a98.79,98.79,0,0,1,34.8,6.59V258.1c-34.74.82-58.64,14.53-71.08,40.79a3.34,3.34,0,0,1-6.35-1.43V255.6l-67.89,7.83Z"/><path class="cls-3" d="M701.64,260.46h41.3v51.62h-41.3v36.43c0,13.19,6.88,21.22,18.64,21.22A69.88,69.88,0,0,0,742.94,366v54.49s-15.49,3.73-45,3.73c-47.89,0-70.84-23.52-70.84-67.11V260.46l53.63-54.2h20.94Z"/><path class="cls-2" d="M697.91,427.56c-48.52,0-74.17-24.36-74.17-70.45V260.46a3.34,3.34,0,0,1,1-2.35l53.63-54.2a3.36,3.36,0,0,1,2.38-1h20.93a3.34,3.34,0,0,1,3.34,3.34v50.86h38a3.34,3.34,0,0,1,3.33,3.34v51.62a3.33,3.33,0,0,1-3.33,3.34H705v33.09c0,11.36,5.57,17.88,15.3,17.88a67.15,67.15,0,0,0,21.47-3.51,3.34,3.34,0,0,1,4.52,3.12v54.49a3.33,3.33,0,0,1-2.55,3.25C743.07,423.89,727.51,427.56,697.91,427.56Zm-67.5-165.73v95.28c0,42.91,22.08,63.77,67.5,63.77,22,0,36.21-2.11,41.69-3.12V370.52a75.9,75.9,0,0,1-19.32,2.55c-13.56,0-22-9.41-22-24.56V312.08a3.34,3.34,0,0,1,3.34-3.33h38V263.8h-38a3.35,3.35,0,0,1-3.34-3.34V209.59H682.1Z"/><path class="cls-3" d="M890,214.86l74.56-8.6V381.78c0,89.76-45.88,124.46-122.74,124.46a206.36,206.36,0,0,1-62.53-10.32v-63.1c19.79,9.47,37.86,12.62,53.06,12.62,36.71,0,57.65-19.79,57.65-50.19v-7.74c-11.47,18.93-31.84,39.58-65.68,39.58-41.58,0-61.37-27-61.37-86V260.46l74.85-8.6v76.28c0,30.4,10,41.59,24.38,41.59,14.05,0,23.51-10,27.82-15.49Z"/><path class="cls-2" d="M841.79,509.58a207.68,207.68,0,0,1-63.66-10.52,3.34,3.34,0,0,1-2.2-3.14v-63.1a3.33,3.33,0,0,1,4.77-3c17.06,8.16,34.43,12.3,51.62,12.3,32.74,0,52.78-16.24,54.23-43.63-12.3,16.18-32,31.95-62.26,31.95-43.54,0-64.71-29.24-64.71-89.38V260.46a3.33,3.33,0,0,1,3-3.31l74.85-8.61a3.35,3.35,0,0,1,3.72,3.32v76.28c0,25.38,7.08,38.25,21,38.25,11,0,19.3-7,24.48-13.33V214.86a3.33,3.33,0,0,1,3-3.31l74.56-8.61a3.28,3.28,0,0,1,2.6.83,3.34,3.34,0,0,1,1.12,2.49V381.78C967.87,467.78,926.63,509.58,841.79,509.58ZM782.6,493.51c7.28,2.33,31.64,9.4,59.19,9.4,39.43,0,68.18-9.05,87.9-27.66,21.2-20,31.51-50.59,31.51-93.47V210l-67.9,7.83V354.24a3.37,3.37,0,0,1-.71,2.07c-8.66,11-19.19,16.76-30.44,16.76-12.65,0-27.72-7.8-27.72-44.93V255.6l-68.18,7.84v77.61c0,57.2,17.9,82.7,58,82.7,32.91,0,52.33-20.65,62.82-38a3.34,3.34,0,0,1,6.19,1.73v7.74c0,33-23.36,53.53-61,53.53A124.13,124.13,0,0,1,782.6,438ZM890,354.24h0Z"/><path class="cls-3" d="M155.09,206.24H32V381.78a200.44,200.44,0,0,0,3.59,39.58c12.19,60.56,54.83,84.88,119.18,84.88a206.34,206.34,0,0,0,62.52-10.32V432.83c-19.79,9.46-37.85,12.61-53,12.61-36.71,0-54.81-19.78-54.81-50.18V356.83h45.63c33.32,0,64.87-13.05,78.58-41.44,4.58-9.49,7.17-20.7,7.17-33.7C240.84,229.47,199.54,206.24,155.09,206.24ZM158.82,309c-4.88,6.11-13.77,9.43-27.25,9.43H109.46v-49h22.11c13.48,0,22.37,3.33,27.25,9.5,3.09,3.92,4.59,9,4.59,15.17S161.91,305.07,158.82,309Z"/><path class="cls-2" d="M154.8,509.58c-70.54,0-110.6-28.64-122.45-87.57a204.1,204.1,0,0,1-3.65-40.23V206.24A3.33,3.33,0,0,1,32,202.91H155.09c41.09,0,89.08,20.63,89.08,78.79,0,13-2.52,24.85-7.5,35.14-13.1,27.13-43.6,43.33-81.58,43.33H112.8v35.09c0,30.21,18.28,46.85,51.47,46.85,17.19,0,34.56-4.14,51.61-12.29a3.33,3.33,0,0,1,4.78,3v63.09a3.36,3.36,0,0,1-2.21,3.14A207.58,207.58,0,0,1,154.8,509.58Zm-119.43-300v172.2a197.65,197.65,0,0,0,3.52,38.91C50,476,87.94,502.91,154.8,502.91c27.55,0,51.9-7.07,59.18-9.4V438a124.2,124.2,0,0,1-49.71,10.76c-37,0-58.14-19.51-58.14-53.52V356.83a3.34,3.34,0,0,1,3.33-3.34h45.63c35.36,0,63.61-14.78,75.57-39.55,4.54-9.39,6.84-20.23,6.84-32.24,0-53.23-44.4-72.12-82.41-72.12Zm96.2,112.16H109.46a3.33,3.33,0,0,1-3.33-3.34v-49a3.33,3.33,0,0,1,3.33-3.33h22.11c14.17,0,24.22,3.62,29.86,10.76,3.53,4.46,5.31,10.26,5.31,17.24s-1.79,12.57-5.31,17h0C155.77,318.14,145.72,321.74,131.57,321.74Zm-18.77-6.67h18.77c12,0,20.3-2.75,24.63-8.18h0c2.57-3.23,3.87-7.55,3.87-12.86s-1.3-9.85-3.87-13.11c-4.31-5.45-12.6-8.22-24.63-8.22H112.8Zm46-6.1h0Z"/><path class="cls-3" d="M1290.63,206.26V421.35H1213.2V291.72l-34.71,129.63h-77.43l-35-129.63V421.35H988.64V206.26h120.45l30.69,113.85,30.4-113.85Z"/><path class="cls-2" d="M1290.63,424.69H1213.2a3.33,3.33,0,0,1-3.34-3.34V317.09l-28.14,105.13a3.34,3.34,0,0,1-3.22,2.47h-77.44a3.33,3.33,0,0,1-3.22-2.47l-28.43-105.33V421.35a3.34,3.34,0,0,1-3.34,3.34H988.64a3.33,3.33,0,0,1-3.34-3.34V206.26a3.33,3.33,0,0,1,3.34-3.34h120.45a3.33,3.33,0,0,1,3.22,2.47l27.45,101.85L1167,205.4a3.35,3.35,0,0,1,3.23-2.48h120.45a3.34,3.34,0,0,1,3.34,3.34V421.35A3.34,3.34,0,0,1,1290.63,424.69Zm-74.1-6.67h70.77V209.59H1172.74L1143,321a3.34,3.34,0,0,1-3.22,2.48h0a3.35,3.35,0,0,1-3.23-2.47l-30-111.39H992V418h70.76V291.72a3.34,3.34,0,0,1,6.56-.87L1103.61,418h72.32l34-127.16a3.34,3.34,0,0,1,6.56.86Z"/><path class="cls-3" d="M1507,330.15v91.2h-74.56V405c-6.6,6.59-26.1,22.08-58.51,22.08-44.16,0-66-21.22-66-51s26.67-47.61,76.86-47.61h45.31c-4.58-10.9-16.63-16.35-32.4-16.35-31.55,0-63.1,12.62-63.1,12.62V264.48a301.08,301.08,0,0,1,75.72-9.76C1466.87,254.72,1507,284,1507,330.15Zm-74.56,46.46V352.52h-22.08c-18.36,0-27.25,6-27.25,16.92s8.32,16.92,22.08,16.92S1428.16,380.63,1432.46,376.61Z"/><path class="cls-2" d="M1374,430.43c-43.39,0-69.3-20.34-69.3-54.39,0-32.38,29.23-51,80.2-51h39.47c-5.07-6.27-14.28-9.67-26.57-9.67-30.55,0-61.54,12.26-61.85,12.38a3.34,3.34,0,0,1-4.58-3.1V264.48a3.34,3.34,0,0,1,2.41-3.21,301.88,301.88,0,0,1,76.65-9.88c59.8,0,100,31.65,100,78.76v91.2a3.33,3.33,0,0,1-3.34,3.34h-74.56a3.34,3.34,0,0,1-3.34-3.34v-9C1419.79,419.65,1401.36,430.43,1374,430.43Zm10.9-98.66c-47.41,0-73.52,15.72-73.52,44.27,0,30.32,22.82,47.71,62.62,47.71,32.52,0,51.2-16.15,56.15-21.1a3.33,3.33,0,0,1,5.69,2.36v13h67.9V330.15c0-43.12-37.5-72.09-93.31-72.09a306,306,0,0,0-72.38,9v52.87c10-3.5,34.67-11.16,59.75-11.16,17.89,0,30.5,6.53,35.49,18.39a3.34,3.34,0,0,1-3.08,4.63Zm20.36,57.93c-15.91,0-25.42-7.57-25.42-20.26,0-9.24,5.31-20.25,30.59-20.25h22.08a3.33,3.33,0,0,1,3.33,3.33v24.09a3.31,3.31,0,0,1-1.06,2.44C1431.31,382.25,1421.56,389.7,1405.21,389.7Zm5.17-33.84c-15.87,0-23.91,4.57-23.91,13.58,0,11.82,11.74,13.59,18.74,13.59,12.66,0,20.66-5.26,23.91-7.93V355.86Zm22.08,20.75h0Z"/><path class="cls-3" d="M1712.79,421.35h-77.44l-18.93-43-19.21,43h-77.44l52.77-80.3-52.77-80.59h77.44l19.21,43,18.93-43h77.44L1660,341.05Z"/><path class="cls-2" d="M1712.79,424.69h-77.44a3.33,3.33,0,0,1-3-2l-15.9-36.13-16.15,36.14a3.32,3.32,0,0,1-3,2h-77.44a3.34,3.34,0,0,1-2.79-5.17l51.57-78.47L1517,262.29a3.34,3.34,0,0,1,2.79-5.17h77.44a3.33,3.33,0,0,1,3,2l16.15,36.15,15.9-36.13a3.34,3.34,0,0,1,3-2h77.44a3.34,3.34,0,0,1,2.79,5.17L1664,341.05l51.57,78.47a3.34,3.34,0,0,1-2.79,5.17ZM1637.53,418h69.07l-49.37-75.14a3.35,3.35,0,0,1,0-3.66l49.39-75.42h-69.08l-18,41a3.36,3.36,0,0,1-3,2h0a3.33,3.33,0,0,1-3-2l-18.34-41H1526l49.38,75.42a3.33,3.33,0,0,1,0,3.66L1526,418H1595l18.34-41a3.32,3.32,0,0,1,3-2h0a3.33,3.33,0,0,1,3,2Z"/><path class="cls-3" d="M1565.29,3.46c-105-2.85-200,41.24-265.48,112.78a44.45,44.45,0,0,0,10.1,68.13h0a44.49,44.49,0,0,0,55.61-8.2A257.31,257.31,0,0,1,1557.4,92.32c138.15.89,252.1,112.13,256.17,250.23a257.06,257.06,0,0,1-14,92.12,44.68,44.68,0,0,0,19,53.23l.07.05a44.44,44.44,0,0,0,64.71-23.39,345.72,345.72,0,0,0,19.31-117.19C1901.11,161.39,1751.21,8.51,1565.29,3.46Z"/><path class="cls-2" d="M1841.4,497.59a47.7,47.7,0,0,1-24.48-6.78,48.32,48.32,0,0,1-20.56-57.23,253.42,253.42,0,0,0,13.88-90.93c-4-135.32-117.43-246.12-252.87-247h-1.63A255.13,255.13,0,0,0,1368,178.42a47.82,47.82,0,0,1-82.61-25.35,47.46,47.46,0,0,1,12-39.08A350.28,350.28,0,0,1,1565.39.13c90.77,2.46,176,39.79,240.1,105.1s99.74,151.29,100.5,242.11a348.61,348.61,0,0,1-19.51,118.32,47.45,47.45,0,0,1-28.72,29A48,48,0,0,1,1841.4,497.59ZM1555.74,89h1.68c67.69.44,131.86,26.94,180.67,74.61s76.82,111.21,78.82,178.86a260.31,260.31,0,0,1-14.24,93.32c-6.46,18.61.94,39.33,17.6,49.27a41.11,41.11,0,0,0,59.92-21.58,342,342,0,0,0,19.12-116.06C1897.8,164.55,1747.92,11.76,1565.2,6.8a343.67,343.67,0,0,0-262.93,111.69,41.1,41.1,0,0,0,9.35,63,41.31,41.31,0,0,0,51.43-7.58A261.86,261.86,0,0,1,1555.74,89Z"/><path class="cls-4" d="M1310.4,139.29l9.3-9.3,24.23,11.2,5.72,3.17-3.17-5.73L1335.3,114.4l9-9,29.94,30-7,7-21.67-22.47,5.15,9.74,9.16,20.09-5.11,5.1-20.22-9.21-9.56-5.06,22.42,21.63-7.05,7Z"/><path class="cls-4" d="M1396.89,109.69l-13.61,9.56,2.26,8.08-8.21,5.76-11.69-43.53,9.78-6.87,37,25.75-8.72,6.12Zm-15.76,1.71,9.12-6.4-10.53-7.52L1376,94.27l1.68,4.67Z"/><path class="cls-4" d="M1397.13,68.83l15.49-7.73c8.86-4.43,16.55-2.7,20.06,4.32,2.08,4.18,1.8,7.94-.31,11.23,2.36.42,4.37,1.78,6.43,4.24l8.63,10.17-9.31,4.64-7.07-8.86c-2.42-3-4-3.17-7.19-1.56l-5.9,3,7,14-8.91,4.46Zm12.45,2.63,4.93,9.86,6.18-3.09c3.74-1.86,4.52-4.76,3-7.71s-4.28-4-7.74-2.26Z"/><path class="cls-4" d="M1439.27,48.86l9.48-3.08,6.17,19L1463.55,41l10.9-3.55-9.43,25,23.5,15-11.85,3.86L1456,67.86,1461.87,86l-9.47,3.09Z"/><path class="cls-4" d="M1485.16,35.11l29.93-5.28,1.37,7.79-20.11,3.55,1.54,8.77,17.73-3.13,1.34,7.61-17.73,3.12L1501,67.3l20.12-3.55,1.37,7.79-29.92,5.27Z"/><path class="cls-4" d="M1538.11,36.28,1525,36.8l-.32-8.16L1561,27.22l.32,8.16-13.14.51,1.35,34.18-10,.39Z"/><path class="cls-4" d="M1571.22,27.71l16.43,1.6c10.41,1,16.34,6.91,15.48,15.77-.88,9.05-7.9,13.62-18.12,12.62l-6.64-.64L1577,70.81l-9.91-1Zm9.15,8.83-1.23,12.65,6.07.59c4.84.47,7.32-1.85,7.69-5.63s-1.74-6.56-6.2-7Z"/><path class="cls-4" d="M1614.6,32.87l9.71,2.21-7.6,33.39,18.16,4.13-1.8,7.9-27.87-6.34Z"/><path class="cls-4" d="M1666.35,84.08l-15.53-5.94-5.44,6.39L1636,81l29.56-34,11.17,4.27-.65,45.1-9.95-3.81ZM1656.12,72l10.41,4,.35-12.94.55-4.92-2.94,4Z"/><path class="cls-4" d="M1715.68,85.69a8.18,8.18,0,0,0-4.17-9.72c-5.59-3.15-11.42-.28-15.7,7.31s-3.7,13.93,1.94,17.11A8.15,8.15,0,0,0,1708,99.14l9.23,5.2c-6.49,7.06-15.47,7.65-23.33,3.22-11-6.21-13.67-17.36-6.95-29.29s17.7-15.55,28.82-9.28c7.92,4.46,12.24,12.54,9.07,21.83Z"/><path class="cls-4" d="M1740.8,85.62l24.1,18.53-4.82,6.27L1743.88,98l-5.43,7.06,14.27,11-4.71,6.12-14.27-11-6,7.85,16.2,12.45-4.82,6.27L1715,119.19Z"/><path class="cls-4" d="M1784.35,122l10.8,12.14c8.9,10,8.45,21.58-1.42,30.35s-21.32,7.8-30.22-2.2l-10.8-12.14Zm2.6,34.87c6.18-5.51,7-11.9,2.15-17.35l-4.18-4.69-19.54,17.38,4.18,4.7C1774.41,162.34,1780.8,162.32,1787,156.86Z"/><path class="cls-4" d="M1816.61,160.08l16.8,25.32-6.59,4.37-11.29-17-7.42,4.93,10,15-6.44,4.27-9.94-15-8.25,5.47,11.29,17-6.59,4.37-16.8-25.32Z"/><path class="cls-4" d="M1845.72,208.2l12.17,27.86-7.25,3.17-8.18-18.73-9.48,4.14,7.21,16.5-7.25,3.17-7.21-16.5-14.84,6.49-4-9.14Z"/><path class="cls-4" d="M1860.83,245.28l3.1,9.47-40.26,13.18-3.1-9.48Z"/><path class="cls-4" d="M1867.63,266.53l6.55,29.69-7.73,1.7-4.4-19.95-8.7,1.92,3.88,17.58-7.54,1.66-3.88-17.58-9.67,2.14,4.4,19.95-7.72,1.7-6.55-29.68Z"/><path class="cls-4" d="M1849.19,343.91c-8.69.71-14.31-6.08-15.12-16s3.18-17.51,12.69-19.79l.86,10.49c-4.1,1.15-6.15,4.26-5.79,8.73s2.36,6.68,5.28,6.44c9.44-.78.19-25.08,16.89-26.46,7.08-.58,13.28,4.85,14.13,15.22.72,8.76-2.82,16.67-12.46,18.78l-.87-10.62c4.09-1.21,5.87-3.8,5.54-7.89-.29-3.48-2.08-5.52-4.56-5.32C1856.77,318.28,1866.45,342.49,1849.19,343.91Z"/><path class="cls-4" d="M1869.94,362.34l.72-13.12,8.15.44-2,36.26-8.15-.44.72-13.12-34.15-1.86.55-10Z"/><path class="cls-4" d="M1837.52,410.85l3-16.34-7.26-4.2,1.83-9.86,38.82,22.91-2.19,11.76-44.46,7.52,1.94-10.47Zm10.06-12.25-2,11,12.78-2,5-.35-4.48-2.16Z"/><path class="cls-4" d="M1827.42,461.49c-8.26-2.79-10.72-11.26-7.55-20.64s9.88-14.8,19.51-13.12l-3.38,10c-4.21-.57-7.33,1.46-8.77,5.71s-.49,7.07,2.28,8c9,3,10.14-22.94,26-17.57,6.73,2.28,10.26,9.72,6.92,19.58-2.82,8.32-9.21,14.18-18.89,12.28l3.42-10.09c4.23.51,6.9-1.15,8.21-5.05,1.12-3.3.29-5.88-2.07-6.68C1844.55,441,1843.82,467.05,1827.42,461.49Z"/></g></g></svg>