<svg xmlns="http://www.w3.org/2000/svg" viewBox="0 0 618.85 334.4" width="40" height="22"><g id="Capa_2" data-name="Capa 2" fill="#F3FCFE"><g id="Capa_1-2" data-name="Capa 1"><path d="M126.94,64.61H104.31A2.27,2.27,0,0,0,102,66.88v50.2a2.28,2.28,0,0,0,2.28,2.27h22.63a54.25,54.25,0,0,0,18-2.64,25.19,25.19,0,0,0,11.63-7.87c3.44-4.34,5.19-10,5.19-16.71s-1.74-12.58-5.19-16.94C151.06,68.16,141.08,64.61,126.94,64.61Z"/><path d="M565.54,0H442.25a2,2,0,0,0-.35,0,1.55,1.55,0,0,0-.31.07l-.14.05-.19.08a2.07,2.07,0,0,0-.32.19l-.13.1a2.09,2.09,0,0,0-.22.2l-.36.36L425.94,15.38s0,0,0,0l-8,8a2.29,2.29,0,0,0-.59,1L402.74,78.92,381.92,1.7A2.27,2.27,0,0,0,379.73,0H256.43l-.27,0a.58.58,0,0,0-.19,0l-.2.05-.16.05-.07,0a2.11,2.11,0,0,0-.33.18,1.87,1.87,0,0,0-.54.47l-7.84,7.83-.05.05L232.52,23l0,0-.44.44a2.28,2.28,0,0,0-.67,1.61V39.62A68.94,68.94,0,0,0,211,17.27C196.8,7.09,178.3,1.07,157,.14L154.92.06C153.61,0,152.31,0,151,0H24.83a2.45,2.45,0,0,0-.39.08A2.11,2.11,0,0,0,24,.28a2.25,2.25,0,0,0-.36.24l-.16.15h0L10.53,13.58l0,0L1.15,23l0,0-.45.45A2.29,2.29,0,0,0,0,25.06V204.73a208.83,208.83,0,0,0,3.71,41c12,59.69,52.65,88.71,124.23,88.71,34.63,0,64.46-10.59,64.76-10.7a2.39,2.39,0,0,0,.84-.53l22.78-22.78,0,0,.18-.21a2.5,2.5,0,0,0,.21-.35,1.79,1.79,0,0,0,.13-.32,0,0,0,0,0,0,0,1.55,1.55,0,0,0,.07-.31,2,2,0,0,0,0-.35V234.2a2.27,2.27,0,0,0-3.25-2.06c-17.61,8.43-35.55,12.7-53.33,12.7-34.7,0-53.81-17.44-53.81-49.1V181.47h21.64c28.1,0,52.47-8.7,68.62-24.49l.29-.28.16-.17.29-.28.15-.16.3-.29.15-.16.29-.28.16-.16.45-.45.3-.3.14-.14.3-.3.15-.15.3-.3.59-.59.29-.3.16-.16.29-.29.16-.15.29-.29.15-.16.3-.29.14-.15q.16-.15.3-.3l.16-.15.28-.28.16-.17.29-.28.16-.16.3-.31.14-.14.3-.29.45-.45.15-.16.28-.27.17-.17.28-.28.16-.17a4,4,0,0,0,.29-.29l.16-.16.29-.28.15-.16a4.11,4.11,0,0,0,.3-.29l.15-.16.29-.28.45-.45.16-.16.3-.3.14-.15a4,4,0,0,0,.29-.29l.16-.15.3-.3.15-.15.3-.3.14-.15.29-.28.16-.17.29-.28.16-.16.29-.3.16-.15.29-.29.15-.15c.1-.1.19-.2.29-.29l.6-.61.29-.28.16-.16.3-.31.14-.14.29-.29.16-.16.3-.29.15-.15c.1-.1.19-.2.29-.29l.16-.16.28-.28.17-.17.27-.28.62-.61c.09-.1.19-.19.29-.29l.15-.16.3-.29.15-.15.29-.29.16-.16.29-.29.16-.16.28-.29.16-.15.3-.3.15-.15a68.52,68.52,0,0,0,10-12.08c.3-.45.59-.91.87-1.37l.32-.52c.34-.55.66-1.1,1-1.65V245.24a2.28,2.28,0,0,0,2.28,2.27h79.26a2.31,2.31,0,0,0,1.61-.66l22.78-22.79.15-.16a3.06,3.06,0,0,0,.21-.29,2.55,2.55,0,0,0,.22-.54,2,2,0,0,0,.09-.62v-8.32l8.55,31.7a2.28,2.28,0,0,0,2.2,1.68H428a2.29,2.29,0,0,0,1.61-.66l22.78-22.79a.28.28,0,0,0,.09-.1,1.46,1.46,0,0,0,.16-.19.35.35,0,0,0,.05-.08,1.18,1.18,0,0,0,.16-.29A2.2,2.2,0,0,0,453,223l8.27-30.86v53.06a2.27,2.27,0,0,0,2.27,2.27h79.26a2.29,2.29,0,0,0,1.61-.66l22.78-22.79.15-.16a2.25,2.25,0,0,0,.24-.36,2.11,2.11,0,0,0,.19-.47,2.45,2.45,0,0,0,.08-.39,1.69,1.69,0,0,0,0-.23V2.29A2.28,2.28,0,0,0,565.54,0ZM231.67,107.68a3.13,3.13,0,0,0-.15.32c-.16.42-.32.81-.47,1.2s-.39,1-.61,1.5-.34.8-.53,1.19-.34.75-.52,1.12l-.63,1.27c-.4.77-.8,1.53-1.23,2.28s-.88,1.53-1.36,2.29c-.23.38-.47.75-.71,1.12l-.74,1.11c-.24.35-.48.7-.73,1s-.68.92-1,1.37c-14.65,19.38-40.62,30.64-72,30.64h-46.7a2.28,2.28,0,0,0-2.28,2.28v39.33c0,34.1,21.28,53.65,58.37,53.65,17.36,0,34.85-3.91,52-11.63v59.38c-6.39,2.1-32.27,9.93-61.71,9.93C81.65,307.07,42.47,279.24,31,222A204.43,204.43,0,0,1,27.33,182V4.55H152.91c1.49,0,3,.08,4.42.15C179.11,5.88,202,13.12,217.57,29h0c.75.77,1.5,1.55,2.21,2.36l.16.18c.37.43.73.85,1.09,1.29a1.83,1.83,0,0,1,.13.16q.57.67,1.11,1.38c.16.19.31.39.45.59a64.42,64.42,0,0,1,8.8,15.87,2.56,2.56,0,0,0,.11.24,79.23,79.23,0,0,1,4.87,28.4A79.18,79.18,0,0,1,231.67,107.68Zm331.6,112.5H488.56V89.77a2.27,2.27,0,0,0-4.47-.59l-22.76,85,0,.08L449,220.18H373.25l-35.36-131a2.28,2.28,0,0,0-4.48.6V220.18h-74.7V4.57H378l22.57,83.74,8.39,31.11a2.27,2.27,0,0,0,2.2,1.69,2.3,2.3,0,0,0,2.2-1.69L444,4.57H563.27Z"/><path d="M574.2,24.64A22.33,22.33,0,1,1,596.48,47,22.32,22.32,0,0,1,574.2,24.64Zm3.95,0a18.33,18.33,0,0,0,31,13.35,11.45,11.45,0,0,1-2.14.24c-5.69,0-11.22-3.4-12.16-9.33h-3v9h-7.58V11.12h16.12c5.84,0,9.79,3.24,9.79,8.14,0,5.14-4.1,8.46-8.85,9.17,1.27,2.05,3,2.92,5.69,2.92a19,19,0,0,0,2.22-.15l.94-.24v6a18.38,18.38,0,1,0-32-12.32Zm20.63-1.19a3.44,3.44,0,0,0,3.79-3.4c0-1.66-1.19-3.39-3.79-3.39h-7v6.79Z"/></g></g></svg>