<svg xmlns="http://www.w3.org/2000/svg" viewBox="0 0 512 512"><defs><style>.cls-1{fill:#d9eef2;}.cls-2{fill:#ff0090;}.cls-3{fill:#0a1b33;}.cls-4{fill:#ffc549;}.cls-5{fill:#6fddef;}</style></defs><g id="Capa_2" data-name="Capa 2"><g id="Capa_1-2" data-name="Capa 1"><g id="Filled_outline" data-name="Filled outline"><g id="Color"><path class="cls-1" d="M70,110H442a36,36,0,0,1,36,36V446H34V146A36,36,0,0,1,70,110Z"/><rect class="cls-2" x="66" y="142" width="380" height="268" rx="12"/><path class="cls-3" d="M6,458v12a36,36,0,0,0,36,36H470a36,36,0,0,0,36-36V458a12,12,0,0,0-12-12H18A12,12,0,0,0,6,458Z"/><path class="cls-1" d="M316.8,446a24,24,0,0,1-24,24H220.4a24,24,0,0,1-24-24H18A12,12,0,0,0,6,458v12a36,36,0,0,0,36,36H470a36,36,0,0,0,36-36V458a12,12,0,0,0-12-12Z"/><rect class="cls-4" x="106" y="6" width="300" height="368" rx="36"/><rect class="cls-5" x="194" y="98" width="124" height="112" rx="17.47"/><rect class="cls-2" x="146" y="246" width="224" height="68" rx="24"/></g><g id="Outline"><path class="cls-3" d="M494,440H484V146a42.06,42.06,0,0,0-42-42H412V42A42.06,42.06,0,0,0,370,0H142a42.06,42.06,0,0,0-42,42v62H70a42.06,42.06,0,0,0-42,42V440H18A18,18,0,0,0,0,458v12a42.06,42.06,0,0,0,42,42H470a42.06,42.06,0,0,0,42-42V458A18,18,0,0,0,494,440ZM112,42a30,30,0,0,1,30-30H370a30,30,0,0,1,30,30V338a30,30,0,0,1-30,30H142a30,30,0,0,1-30-30Zm30,338H370a42.06,42.06,0,0,0,42-42V148h22a6,6,0,0,1,6,6V398a6,6,0,0,1-6,6H78a6,6,0,0,1-6-6V154a6,6,0,0,1,6-6h22V338A42.06,42.06,0,0,0,142,380ZM40,146a30,30,0,0,1,30-30h30v20H78a18,18,0,0,0-18,18V398a18,18,0,0,0,18,18H434a18,18,0,0,0,18-18V154a18,18,0,0,0-18-18H412V116h30a30,30,0,0,1,30,30V440H40ZM309.7,452a18,18,0,0,1-16.9,12H220.4a18,18,0,0,1-16.89-12ZM500,470a30,30,0,0,1-30,30H42a30,30,0,0,1-30-30V458a6,6,0,0,1,6-6H191a30.05,30.05,0,0,0,29.4,24h72.4a30.05,30.05,0,0,0,29.4-24H494a6,6,0,0,1,6,6Z"/><path class="cls-3" d="M211.47,216h89.06A23.49,23.49,0,0,0,324,192.53V115.47a23.5,23.5,0,0,0-20-23.2c0-2,0-3.91,0-5-.57-33.1-25.2-48.18-47.84-48.18A46.94,46.94,0,0,0,208,84.77c0,.67,0,1.33,0,2,0,1.2,0,3.33,0,5.52a23.48,23.48,0,0,0-20,23.18v77.06A23.49,23.49,0,0,0,211.47,216ZM220,87a34.92,34.92,0,0,1,33.9-35.91c.76,0,1.51,0,2.26,0,17.53,0,35.41,11.24,35.84,36.4,0,1,0,2.72,0,4.53H220c0-2,0-3.91,0-5Zm-20,28.49A11.49,11.49,0,0,1,211.47,104h89.06A11.49,11.49,0,0,1,312,115.47v77.06A11.49,11.49,0,0,1,300.53,204H211.47A11.49,11.49,0,0,1,200,192.53Z"/><path class="cls-3" d="M249.29,184h13.42a8.6,8.6,0,0,0,8.6-8.6,8.08,8.08,0,0,0-.17-1.69l-5.66-28.32a12.88,12.88,0,1,0-19,0l-5.66,28.32a8.59,8.59,0,0,0,6.74,10.12,8.73,8.73,0,0,0,1.69.17Z"/><path class="cls-3" d="M170,320H346a30,30,0,0,0,30-30V270a30,30,0,0,0-30-30H170a30,30,0,0,0-30,30v20A30,30,0,0,0,170,320Zm-18-50a18,18,0,0,1,18-18H346a18,18,0,0,1,18,18v20a18,18,0,0,1-18,18H170a18,18,0,0,1-18-18Z"/><circle class="cls-3" cx="186" cy="280" r="8"/><path class="cls-3" d="M280,288a8,8,0,1,0-8-8A8,8,0,0,0,280,288Z"/><path class="cls-3" d="M232,288a8,8,0,1,0-8-8A8,8,0,0,0,232,288Z"/><circle class="cls-3" cx="326" cy="280" r="8"/></g></g></g></g></svg>
