<svg width="41" height="41" viewBox="0 0 41 41" fill="none" xmlns="http://www.w3.org/2000/svg">
<g clip-path="url(#clip0_489_8291)">
<path d="M20.5996 0.950195C9.5556 0.950195 0.599609 9.90619 0.599609 20.9502C0.599609 31.9942 9.5556 40.9502 20.5996 40.9502C31.6436 40.9502 40.5996 31.9942 40.5996 20.9502C40.5996 9.90619 31.6436 0.950195 20.5996 0.950195ZM21.0235 32.5948C21.0232 32.5948 21.0238 32.5948 21.0235 32.5948H21.0186C19.0151 32.5939 17.0464 32.0916 15.2981 31.1382L8.95258 32.8023L10.6509 26.6011C9.60321 24.7866 9.05206 22.7278 9.05298 20.6188C9.05573 14.0209 14.4256 8.65314 21.0235 8.65314C24.2254 8.65436 27.2311 9.9007 29.4909 12.1624C31.751 14.4243 32.9949 17.4309 32.9937 20.6282C32.991 27.2264 27.6205 32.5948 21.0235 32.5948Z" fill="#FF0090"/>
<path d="M21.0275 10.6738C15.5395 10.6738 11.0763 15.1352 11.0739 20.6192C11.0732 22.4985 11.5994 24.3286 12.5952 25.9122L12.8317 26.2885L11.8264 29.9588L15.592 28.9713L15.9554 29.1867C17.4828 30.0931 19.2339 30.5725 21.0192 30.5731H21.0232C26.5069 30.5731 30.9701 26.1115 30.9725 20.6271C30.9734 17.9694 29.9395 15.4706 28.0612 13.5907C26.1828 11.7108 23.6846 10.6747 21.0275 10.6738ZM26.8795 24.8953C26.6302 25.5936 25.4354 26.2311 24.8608 26.3171C24.3453 26.394 23.6935 26.4261 22.9769 26.1987C22.5424 26.0608 21.9854 25.8768 21.2716 25.5688C18.2714 24.2737 16.3119 21.2537 16.1624 21.0541C16.0128 20.8545 14.941 19.4327 14.941 17.9608C14.941 16.4893 15.7137 15.7657 15.9878 15.4666C16.2621 15.1672 16.5862 15.0925 16.7855 15.0925C16.9848 15.0925 17.1844 15.0943 17.3586 15.1028C17.5424 15.112 17.7889 15.033 18.0316 15.6161C18.2809 16.2149 18.879 17.6865 18.9538 17.836C19.0286 17.9858 19.0783 18.1604 18.9788 18.36C18.879 18.5596 18.5476 18.9902 18.2311 19.3826C18.0984 19.5471 17.9254 19.6936 18.0999 19.993C18.2742 20.2921 18.8748 21.2714 19.7637 22.0642C20.9063 23.0829 21.8701 23.3984 22.1691 23.5483C22.4679 23.6978 22.6425 23.6728 22.817 23.4735C22.9913 23.2739 23.5647 22.6004 23.764 22.301C23.9633 22.0016 24.1628 22.0517 24.4369 22.1515C24.7112 22.251 26.1816 22.9745 26.4807 23.1241C26.7797 23.2739 26.979 23.3487 27.0538 23.4735C27.1288 23.5983 27.1288 24.1968 26.8795 24.8953Z" fill="#FF0090"/>
</g>
<defs>
<clipPath id="clip0_489_8291">
<rect width="40" height="40" fill="white" transform="translate(0.599609 0.950195)"/>
</clipPath>
</defs>
</svg>
