<svg xmlns="http://www.w3.org/2000/svg" viewBox="0 0 567.83 334.4"><defs><style>.cls-1{fill:#6fddef;}.cls-1,.cls-2{stroke:#0a1b33;stroke-linecap:round;stroke-linejoin:round;stroke-width:4.55px;}.cls-2{fill:#ff0090;}</style></defs><g id="Capa_2" data-name="Capa 2"><g id="Capa_1-2" data-name="Capa 1"><path class="cls-1" d="M442.26,2.29h0l-.45.45h0l-.45.44h0L440,4.52h0l-.44.45h0l-.45.45h0l-.45.44h0l-.89.89h0l-.45.44h0l-.44.45h0L435.56,9h0l-.45.45h0l-.45.44h0l-.44.44h0l-1.34,1.34h0l-.44.45h0l-.45.44h0l-1.34,1.33h0l-.45.44h0l-.44.45h0l-.45.45h0l-.89.89h0l-.45.45h0l-.45.44h0l-1.34,1.34h0l-.44.45h0l-.45.45h0l-.45.44h0l-1.34,1.34h0l-.44.45h0l-.45.45h0l-1.34,1.34h0l-.45.44h0l-.44.45h0l-.45.45h0l-.45.44L402.75,87.71l-23-85.42H256.44l-.45.45h0l-.45.44h0L254.2,4.52l-.44.45-.45.45h0l-.45.44h0l-.89.9-.45.44-.45.45h0L249.74,9l-.45.45-.45.44h0l-.44.45h0l-1.34,1.34-.44.45h0l-.45.44h0l-1.34,1.33-.45.45-.44.45h0l-.45.45h0l-.89.89-.45.45-.45.44h0l-1.34,1.34-.44.45-.45.45h0l-.45.44h0l-1.34,1.34h0l-.44.45h0l-.45.45h0l-1.34,1.34h0l-.45.44h0l-.44.45h0l-.45.45h0l-.45.44v25C221.09,17.23,187.08,2.28,151,2.28H25.06l-.45.44h0l-.44.45h0L22.83,4.51h0L22.38,5h0l-.45.44h0l-.44.45h0L20.15,7.19h0l-.44.45h0L17.91,9.42h0l-.45.45h0l-.44.45h0l-1.34,1.34h0l-.45.44h0l-.44.45h0l-1.34,1.34h0l-.44.45h0l-.45.44h0l-.45.44h0l-1.33,1.34h0l-.44.45h0L8.53,18.81h0l-.45.44h0l-.44.45h0L6.3,21h0l-.45.45h0l-.45.44h0L4.06,23.27h0l-.44.45h0l-.45.45h0l-.45.44h0l-.44.45V204.73A204.83,204.83,0,0,0,6,245.24c12.47,62,56.12,86.89,122,86.89a211,211,0,0,0,64-10.57l2.23-2.23.45-.45h0l1.79-1.79.44-.44h0l2.24-2.24h0l.44-.44h0l1.79-1.78h0l2.23-2.23h0l.45-.44h0l1.79-1.79h0l.44-.45h0l1.79-1.78.45-.45h0l.44-.45h0l1.33-1.34h0l.45-.44h0l2.24-2.24h0l.44-.44h0l1.34-1.34V234.2c-20.25,9.69-38.74,12.91-54.3,12.91-37.57,0-56.1-20.25-56.1-51.36V179.19h23.92c25.75,0,50.45-7.62,67.05-23.85l.45-.44.44-.45.45-.45.45-.44.44-.45.45-.45.45-.44.44-.45.45-.45.45-.44.44-.45.45-.45.45-.44.44-.45.45-.45c.15-.14.3-.3.45-.45s.29-.29.44-.44l.45-.45.45-.44.44-.45.45-.45.45-.44.44-.45.45-.45.45-.44.44-.45c.16-.15.3-.3.45-.45l.45-.45.44-.44.45-.45c.15-.14.3-.3.45-.45l.44-.44.45-.45.45-.44c.15-.15.29-.31.45-.45l.44-.45.45-.45.44-.44.45-.45.45-.45c.15-.14.29-.3.44-.44l.45-.45.45-.45.44-.44.45-.45.45-.45.44-.44.45-.45.45-.45c.15-.14.29-.3.44-.44a65.82,65.82,0,0,0,13.83-19c.81-1.67,1.53-3.41,2.21-5.18V245.24h79.26l.45-.45h0l2.23-2.23h0l2.24-2.24h0l.44-.44h0l1.79-1.79h0l2.68-2.68h0l2.24-2.23h0l2.23-2.24h0l.45-.44h0l1.78-1.79h0l2.68-2.68h0l2.24-2.23h0l1.34-1.34h0V197l13,48.28H428l.44-.45h0l2.24-2.23h0l2.23-2.24h0l.45-.44h0l1.78-1.79h0l2.68-2.68h0l2.24-2.23h0l2.23-2.24h0l.45-.44h0l1.78-1.79h0L447.2,226h0l2.23-2.23h0l1.34-1.34h0l12.74-47.59v70.37h79.26L545,243l.45-.44h0l1.78-1.79.45-.45h0l2.23-2.23h0l.45-.45h0l1.79-1.78h0l2.23-2.24h0l.45-.44h0l1.78-1.79h0l.45-.45h0l1.79-1.78.44-.45h0l.45-.45h0l1.34-1.34h0l.45-.44h0l2.23-2.24h0l.45-.44h0l1.34-1.33V2.29Z"/><path class="cls-2" d="M151,2.28H25.06V182a204.9,204.9,0,0,0,3.67,40.51c12.47,62,56.12,86.88,122,86.88a211.2,211.2,0,0,0,64-10.56V234.2c-20.25,9.69-38.74,12.91-54.3,12.91-37.57,0-56.1-20.25-56.1-51.36V156.41H151c34.11,0,66.4-13.35,80.43-42.41,4.7-9.72,7.34-21.2,7.34-34.49C238.78,26.05,196.51,2.28,151,2.28Zm3.82,105.14c-5,6.25-14.09,9.66-27.89,9.66H104.31V66.88h22.63c13.8,0,22.9,3.41,27.89,9.72,3.17,4,4.7,9.25,4.7,15.53S158,103.43,154.83,107.42Z"/><polygon class="cls-2" points="442.26 2.29 411.14 118.83 379.73 2.29 256.44 2.29 256.44 222.46 335.7 222.46 335.7 89.77 371.51 222.46 450.77 222.46 486.29 89.77 486.29 222.46 565.55 222.46 565.55 2.29 442.26 2.29"/></g></g></svg>